<svg xmlns="http://www.w3.org/2000/svg" viewBox="0 0 10 16"><defs><style>.cls-1{fill:#fff}</style></defs><title>Asset 4</title><g id="Layer_2" data-name="Layer 2"><path class="cls-1" d="M9.67 16a.31.31 0 0 1-.24-.1L5 11.47.57 15.9a.31.31 0 0 1-.36.1.32.32 0 0 1-.21-.3v-14A1.67 1.67 0 0 1 1.67 0h6.66A1.67 1.67 0 0 1 10 1.67v14a.32.32 0 0 1-.21.3zM5 10.67a.36.36 0 0 1 .24.09l4.09 4.1V1.67a1 1 0 0 0-1-1H1.67a1 1 0 0 0-1 1v13.19l4.09-4.1a.36.36 0 0 1 .24-.09z" id="Layer_1-2" data-name="Layer 1"/></g></svg>