<svg xmlns="http://www.w3.org/2000/svg" viewBox="0 0 16.9 23"><defs><style>.cls-1{fill:#fff}</style></defs><title>Asset 2</title><g id="Layer_2" data-name="Layer 2"><g id="Layer_1-2" data-name="Layer 1"><path class="cls-1" d="M14.38 2.43a8.42 8.42 0 0 0-11.92.08A8.41 8.41 0 0 0 .93 12.3l2.91 4.89 1.26 2.1L6.72 22a2 2 0 0 0 3.46 0l1.53-2.57.12-.2L12 19l.93-1.57 3-5.05a8.47 8.47 0 0 0-1.6-9.87zm.41 9.24L9 21.33a.66.66 0 0 1-.58.33.67.67 0 0 1-.58-.33l-5.73-9.66a7 7 0 0 1-.77-3.26 7.14 7.14 0 0 1 7-7.07 7.11 7.11 0 0 1 6.44 10.33z"/><path class="cls-1" d="M8.45 5.39a3.06 3.06 0 1 0 3.06 3.06 3.06 3.06 0 0 0-3.06-3.06zm0 4.78a1.72 1.72 0 1 1 1.72-1.72 1.72 1.72 0 0 1-1.72 1.72z"/></g></g></svg>