<svg xmlns="http://www.w3.org/2000/svg" viewBox="0 0 12.25 14.55"><defs><style>.cls-1{fill:#fff;stroke:#fff;stroke-miterlimit:10;stroke-width:.25px}</style></defs><title>Asset 13</title><g id="Layer_2" data-name="Layer 2"><g id="Layer_1-2" data-name="Layer 1"><path class="cls-1" d="M.37 14.43a.25.25 0 0 1-.24-.26V.37A.24.24 0 0 1 .37.13a.25.25 0 0 1 .26.24v13.8a.26.26 0 0 1-.26.26z"/><path class="cls-1" d="M11.87 7.53H.37a.25.25 0 0 1-.24-.25V.37A.24.24 0 0 1 .37.13h11.5a.25.25 0 0 1 .2.4l-2.61 3.3 2.61 3.29a.25.25 0 0 1 0 .26.25.25 0 0 1-.23.15zM.63 7h10.72L9 4a.23.23 0 0 1 0-.31l2.4-3H.63z"/></g></g></svg>