<svg xmlns="http://www.w3.org/2000/svg" viewBox="0 0 22.3 21.29"><defs><style>.cls-1{fill:#0057ff}</style></defs><title>Asset 1</title><g id="Layer_2" data-name="Layer 2"><path class="cls-1" d="M22.27 8.05a.63.63 0 0 0-.5-.43l-7-1L11.68.34a.61.61 0 0 0-.55-.34.62.62 0 0 0-.56.35L7.49 6.66l-7 1a.64.64 0 0 0-.5.42.63.63 0 0 0 .16.64l5.05 4.89-1.13 6.96a.62.62 0 0 0 .25.6.58.58 0 0 0 .36.12.59.59 0 0 0 .32-.07l6.21-3.29 6.23 3.25a.58.58 0 0 0 .28.07.62.62 0 0 0 .62-.62.68.68 0 0 0 0-.14l-1.2-6.89 5-4.92a.6.6 0 0 0 .17-.63zM16 13a.62.62 0 0 0-.18.55l1.05 6-5.41-2.83a.64.64 0 0 0-.57 0l-5.4 2.86 1-6a.66.66 0 0 0-.16-.58L2 8.73l6-.9a.6.6 0 0 0 .46-.34L11.13 2l2.72 5.47a.66.66 0 0 0 .47.34l6 .86z" id="Слой_7" data-name="Слой 7"/></g></svg>