<svg xmlns="http://www.w3.org/2000/svg" viewBox="0 0 47.13 38.38"><defs><style>.cls-1{fill:#0057ff}</style></defs><title>Asset 14</title><g id="Layer_2" data-name="Layer 2"><g id="Layer_1-2" data-name="Layer 1"><path class="cls-1" d="M44.69 6.69h-.93V3.31A2.86 2.86 0 0 0 41.05.52L30.92 0H26.8l-6.15.33a8.79 8.79 0 0 1 1.21 1.3l1.67-.08V3.6A2.51 2.51 0 0 0 26.15 6h5.39a2.65 2.65 0 0 0 2.78-2.4v-2l6.68.27a1.46 1.46 0 0 1 1.38 1.44v14.36A48.72 48.72 0 0 1 32.05 20a4.52 4.52 0 0 0 .77-1.85h5.47a.68.68 0 0 0 0-1.35H30.2a.68.68 0 1 0 0 1.35h1.24a2.68 2.68 0 0 1-2 2h-.56a33.87 33.87 0 0 1-4.05-.27v1.36a33.74 33.74 0 0 0 4.05.26h.79a47.7 47.7 0 0 0 12.73-2.4v13.2a2.11 2.11 0 0 1-2.11 2H22.51l1.34 1.35h11.82v.67a2 2 0 0 0 1.94 2H39a2.1 2.1 0 0 0 2.1-2v-.72a3.39 3.39 0 0 0 2.7-3.3V16.13h.93a2.44 2.44 0 0 0 2.44-2.37V9a2.43 2.43 0 0 0-2.48-2.31zM33 3.6c0 .59-.68 1.07-1.43 1.07h-5.42a1.16 1.16 0 0 1-1.27-1.07V1.49l2-.1h4l2.08.1zm6.74 32.75A.75.75 0 0 1 39 37h-1.39a.61.61 0 0 1-.59-.68v-.67h2.69zm6.07-22.59a1.09 1.09 0 0 1-1.09 1h-.93V8h.93a1.08 1.08 0 0 1 1.09 1z"/><path class="cls-1" d="M26.63 8.9a.69.69 0 0 0-1 0l-1 1v1.91l2-2a.69.69 0 0 0 0-.91zm-3.77 20.03a.74.74 0 0 1-.75.68h-.29l-.86.87.48.48h16.85a2.1 2.1 0 0 0 2.1-2v-1.38a2.09 2.09 0 0 0-2.1-2H25l-2.1 2.1zM35 27.58a.6.6 0 0 1 .6-.67h2.7a.74.74 0 0 1 .75.67v1.35a.74.74 0 0 1-.75.68h-2.7a.62.62 0 0 1-.6-.68zm-11-.67h9.67a2.05 2.05 0 0 0 0 .67v1.35a2.09 2.09 0 0 0 0 .68H24a1.75 1.75 0 0 0 .2-.68v-1.35a1.75 1.75 0 0 0-.2-.67zM6.48 22.88a2.78 2.78 0 1 0-2.77-2.77 2.77 2.77 0 0 0 2.77 2.77zm0-4.16a1.39 1.39 0 1 1-1.39 1.39 1.39 1.39 0 0 1 1.39-1.39zm11.1-1.39a2.78 2.78 0 1 0 2.77 2.78 2.79 2.79 0 0 0-2.77-2.78zm0 4.16A1.39 1.39 0 1 1 19 20.11a1.38 1.38 0 0 1-1.42 1.38zM5.09 16H19a.78.78 0 0 0 .78-.7v-9a.76.76 0 0 0-.78-.75H5.09a.62.62 0 0 0-.61.69v9a.64.64 0 0 0 .61.76zm.78-9h12.48v7.62H5.87z"/><path class="cls-1" transform="rotate(-63.42 2.32 34.666)" d="M-1.48 33.97h7.59v1.39h-7.59z"/><path class="cls-1" transform="rotate(-20.56 20.677 34.674)" d="M20 31.01h1.39v7.31H20z"/><path class="cls-1" d="M7.25 31.9h9.71v1.39H7.25zm-2.08 3.47h13.87v1.39H5.17zm3.38-4.86h7a8.4 8.4 0 0 0 8.4-8.33V8.32A8.4 8.4 0 0 0 15.5 0H8.55A8.26 8.26 0 0 0 .32 8.32v13.86a8.26 8.26 0 0 0 8.23 8.33zM1.71 8.32a6.86 6.86 0 0 1 6.84-6.93h7a7 7 0 0 1 7 6.93v13.86a7 7 0 0 1-7 7h-7a6.87 6.87 0 0 1-6.84-6.95z"/></g></g></svg>