<svg xmlns="http://www.w3.org/2000/svg" viewBox="0 0 49.5 39.37"><defs><style>.cls-1{fill:#0057ff}</style></defs><title>Asset 13</title><g id="Layer_2" data-name="Layer 2"><g id="Layer_1-2" data-name="Layer 1"><path class="cls-1" d="M4.46 7.37a14.21 14.21 0 0 0 5.6 1 14.12 14.12 0 0 0 5.59-1c2.38-1 2.73-2.43 2.73-3.17S18 2.08 15.65 1a14.34 14.34 0 0 0-5.59-1 14.39 14.39 0 0 0-5.6 1C2.09 2.08 1.74 3.47 1.74 4.2s.35 2.12 2.72 3.17zm5.6-5.46c3.85 0 6.41 1.38 6.41 2.29s-2.56 2.3-6.41 2.3-6.41-1.39-6.41-2.3 2.55-2.29 6.41-2.29zM16.82 10a1 1 0 0 0-.67.29c-.78.81-3 1.69-6.09 1.69S4.75 11.11 4 10.3a1 1 0 0 0-.7-.3 1 1 0 0 0-.66.27.92.92 0 0 0-.29.67.9.9 0 0 0 .27.68C4 13 6.81 13.9 10.06 13.9s6.11-.87 7.46-2.27a1 1 0 0 0 0-1.35 1 1 0 0 0-.7-.28zm1 14a1 1 0 0 0 1 1h1.35a1 1 0 1 0 0-1.91h-1.39a1 1 0 0 0-.96.91zm4.8-18.81h5.83L27.4 6.45a1 1 0 0 0 .13 1.35 1 1 0 0 0 1.34-.13l.55-.67.81-1c.31-.37.63-.78 1-1.19a.79.79 0 0 0 .14-.23v-.06a1 1 0 0 0 .05-.34 1 1 0 0 0-.21-.64l-1-1.2-.8-1-.54-.6a.94.94 0 0 0-1.34-.13.91.91 0 0 0-.34.64.94.94 0 0 0 .21.7l1.12 1.33h-5.9a1 1 0 0 0 0 1.91zM7.09 30.2H4.34a.95.95 0 1 0 0 1.9h2.75a.95.95 0 0 0 0-1.9zM41.65 33a1 1 0 1 0 1 1 1 1 0 0 0-1-1zM7.09 25.87H1a1 1 0 0 0 0 1.91h6.09a1 1 0 0 0 0-1.91z"/><path class="cls-1" d="M49.49 26.26c-.07-3.29-.76-3.9-3.65-6.46l-.17-.15-.92-.82c-.27-.24-.53-.49-.81-.76-.46-.44-.9-.86-1.38-1.26l-1.11-.93C37 12.15 35.18 10.6 30.62 10.6h-8.31a1 1 0 0 0 0 1.91h8.31c3.87 0 5.08 1 9.61 4.83l1.1.93c.46.39.9.81 1.29 1.18s.57.55.86.8l1.09 1c.64.57 1.14 1 1.53 1.39l.45.43L28.74 23c-.09 0-.95-.37-3.09-2.5a22.45 22.45 0 0 1-2.61-3 1 1 0 0 0-1.76 0 .93.93 0 0 0 0 .73A20 20 0 0 0 24.39 22c3 3 4 3 4.36 3h18.76v6.85a1 1 0 0 1-.31.69l-.3.3-.12-.4a5.43 5.43 0 1 0-5.2 7A5.42 5.42 0 0 0 47 34.89v-.14h.14a3.18 3.18 0 0 0 2.33-2.92v-2.7c.03-1.02.03-2.24.02-2.87zM45.17 34a3.52 3.52 0 1 1 0-.05zm-13.05-1H25v-.19a5.43 5.43 0 0 0-10.51-.41l-.12.4-.37-.31a1.12 1.12 0 0 1-.23-.32.9.9 0 0 1-.1-.39v-8a1 1 0 1 0-1.91 0v8a2.77 2.77 0 0 0 .3 1.25 3.42 3.42 0 0 0 2 1.68h.15v.15a5.44 5.44 0 0 0 10.66.19v-.2h7.15a1 1 0 1 0 0-1.91zm-12.5 4.48a3.52 3.52 0 1 1 3.52-3.52 3.54 3.54 0 0 1-3.52 3.5zm-1.83-20.93a1 1 0 0 0-1.64-.65c-.78.81-3 1.68-6.09 1.68S4.75 16.71 4 15.9a1 1 0 0 0-.69-.29.93.93 0 0 0-.66.27.92.92 0 0 0-.29.67.9.9 0 0 0 .27.68c1.35 1.4 4.21 2.26 7.46 2.26s6.11-.86 7.46-2.26a.9.9 0 0 0 .24-.68z"/><path class="cls-1" d="M19.62 33a1 1 0 1 0 0 1.91 1 1 0 0 0 0-1.91z"/></g></g></svg>