<svg xmlns="http://www.w3.org/2000/svg" viewBox="0 0 32 32"><defs><style>.cls-1{fill:#0057ff}</style></defs><title>Asset 3</title><g id="Layer_2" data-name="Layer 2"><path class="cls-1" d="M32 14.59a.63.63 0 0 0 0-.19L28.62 4.21v-.87l2.19-1a.61.61 0 0 0 .37-.57.62.62 0 0 0-.37-.57L28.26.06a.61.61 0 0 0-.6 0 .61.61 0 0 0-.29.52v3.63L24 14.4a.63.63 0 0 0 0 .19v.78h-2.83a.63.63 0 0 0-.62.63v.77H20V9.66a.63.63 0 0 0-.14-.4l-3.24-4v-.71l2.19-1a.62.62 0 0 0 0-1.14l-2.55-1.15a.64.64 0 0 0-.6.05.6.6 0 0 0-.28.52V5.3l-3.24 4a.63.63 0 0 0-.14.4v7.11h-.55V16a.63.63 0 0 0-.63-.63H8v-.78a.63.63 0 0 0 0-.19L4.62 4.21v-.87l2.19-1a.61.61 0 0 0 .37-.57.62.62 0 0 0-.37-.57L4.26.06a.61.61 0 0 0-.6 0 .61.61 0 0 0-.29.52v3.63L0 14.4a.63.63 0 0 0 0 .19v16.78a.63.63 0 0 0 .62.63h30.75a.63.63 0 0 0 .63-.63V14.59zm-3.38-13l.42.19-.42.22zM28 6.32L30.51 14h-5zM16.62 2.8L17 3l-.42.19zM16 6.51L18.06 9h-4.12zm-2.75 3.77h5.5v6.49h-.4V16a.63.63 0 0 0-.37-.57v-2.29a2 2 0 0 0-4 0v2.29a.63.63 0 0 0-.37.57v.77h-.4zm3.48 5.09h-1.46v-2.23a.73.73 0 0 1 1.46 0zM4.62 1.59l.38.19-.38.22zM4 6.32L6.51 14h-5zm-2.75 8.9h5.5v15.53H3.27v-4.09a.73.73 0 0 1 1.46 0v.93a.63.63 0 0 0 1.25 0v-.93a2 2 0 0 0-4 0v4.09h-.73zM8 16.62h2.2v.77a.63.63 0 0 0 .62.63h3.45a.63.63 0 0 0 .63-.63v-.77h2.2v.77a.63.63 0 0 0 .63.63h3.45a.63.63 0 0 0 .62-.63v-.77H24v14.13h-4.88v-.63a.62.62 0 0 0-.62-.62.63.63 0 0 0-.63.62v.63h-3.75v-7.19a1.88 1.88 0 0 1 3.75 0v2.66a.63.63 0 0 0 .63.62.62.62 0 0 0 .62-.62v-2.66a3.13 3.13 0 0 0-6.25 0v7.19H8zm22.75 14.13h-3.48v-4.09a.73.73 0 0 1 1.46 0v.93a.63.63 0 0 0 1.25 0v-.93a2 2 0 0 0-4 0v4.09h-.77V15.22h5.5z" id="Layer_1-2" data-name="Layer 1"/></g></svg>