<svg xmlns="http://www.w3.org/2000/svg" viewBox="0 0 35.65 35.65"><defs><style>.cls-1{fill:#0057ff}</style></defs><title>Asset 2</title><g id="Layer_2" data-name="Layer 2"><path class="cls-1" d="M17.83 0a17.83 17.83 0 1 0 17.82 17.83A17.85 17.85 0 0 0 17.83 0zm12.66 12.08a.7.7 0 0 0 .68-.58l.26.13a1.75 1.75 0 0 0 .81.19h.88q.16.42.3.84h-1.09a2.21 2.21 0 0 0-1 .23l-.4.2a.79.79 0 0 1-.8-.05l-1.51-1a.78.78 0 0 0-.39-.12h-.18l.51-.77a.14.14 0 0 1 .12-.06h1.09v.3a.7.7 0 0 0 .72.69zm-.8-5.61l-.44.44a.68.68 0 0 0 0 1 .68.68 0 0 0 1 0l.38-.37a16.45 16.45 0 0 1 1.88 2.91h-.25a.41.41 0 0 1-.19 0L31 9.84a1.62 1.62 0 0 0-.68-.16H28.7a1.55 1.55 0 0 0-1.28.68l-1 1.55h-.65a.51.51 0 0 1-.51-.51v-1.23l1.36-.46a2.27 2.27 0 0 0 .91-.56 2.31 2.31 0 0 0 .67-1.64V6.22l.52-.53.05-.06q.49.37.92.84zM6.86 5.61l.74.74a.69.69 0 0 0 1 0l1-1.05a.79.79 0 0 1 .56-.23h.92a.71.71 0 0 0 .33.59.69.69 0 0 0 .68 0l1.22-.61a.58.58 0 0 1 .26-.06h2.49a1.2 1.2 0 0 0 0 2l1 .64v.35h-.37a1.71 1.71 0 0 0-1.22.51l-4.69 4.69H9.63a2.19 2.19 0 0 0-2.18 2.19v.34l-.78-.15a.61.61 0 0 1-.42-.33l-.46-.92a.71.71 0 0 0-.62-.38h-.42a.8.8 0 0 1-.75-.32l-1-2.92a16.37 16.37 0 0 1 3.86-5.08zm11 28.65A16.44 16.44 0 0 1 2.22 12.69l.45 1.36a2.2 2.2 0 0 0 2.06 1.5l.27.53a2 2 0 0 0 1.4 1.07l2.66.53a.71.71 0 0 1 .39.21 2.26 2.26 0 0 0 .75.49l-.48 1.46a.54.54 0 0 0 0 .22v1.49a2.2 2.2 0 0 0 .88 1.75l1.78 1.34a.79.79 0 0 1 .32.63v4a2.18 2.18 0 0 0 .3 1.23l1.07 1.61a1.25 1.25 0 0 0 1.05.56h.26a.88.88 0 0 0 .88-.88v-1.28a1.15 1.15 0 0 1 .34-.82l1.4-1.38a2.59 2.59 0 0 0 .62-1l.44-1.31a.05.05 0 0 1 .05 0h.37a1.44 1.44 0 0 0 1.4-1.09l.5-2A1.45 1.45 0 0 0 21 21.5l-1-1a1.46 1.46 0 0 0-1-.42h-.9l-2.55-2.56a1.45 1.45 0 0 0-1-.42H11a.76.76 0 0 1-.55-.23 2.12 2.12 0 0 0-1.1-.59l-.5-.1v-.62a.8.8 0 0 1 .79-.79h.8a.7.7 0 1 0 1.39 0v-.46l4.69-4.7a.32.32 0 0 1 .23-.09h.32a1.44 1.44 0 0 0 1.44-1.45V7.8a1.45 1.45 0 0 0-.64-1.2l-.59-.39 1.13-.29a1.12 1.12 0 0 0-.27-2.2h-4.48a2.11 2.11 0 0 0-.89.21l-.46.23a1.18 1.18 0 0 0-.91-.44h-1.15a2.21 2.21 0 0 0-1.55.64l-.56.56-.2-.21a16.43 16.43 0 0 1 19.78 0l-.49.49a1.43 1.43 0 0 0-.42 1v1.27a1 1 0 0 1-.27.66 1 1 0 0 1-.36.22l-1.36.45a1.45 1.45 0 0 0-1 1.37v1.23a2 2 0 0 0 .26 1 2.51 2.51 0 0 0-.72.73l-.66 1a2.21 2.21 0 0 0-.37 1.22v1.33a2.18 2.18 0 0 0 .37 1.21l.8 1.11a2.19 2.19 0 0 0 1.82 1h1.86a.8.8 0 0 1 .75.54l.16.5a3.86 3.86 0 0 1 .21 1.25v.53a7.17 7.17 0 0 0 .29 2.06l1.19 4.19a16.39 16.39 0 0 1-11.95 5.19zm-4.68-10.74l-1.79-1.34a.81.81 0 0 1-.31-.63v-1.38l.55-1.65h2.91l2.76 2.76a.7.7 0 0 0 .5.2H19l1 1-.51 2h-.37a1.45 1.45 0 0 0-1.37 1l-.44 1.31a1 1 0 0 1-.28.45l-1.39 1.46a2.58 2.58 0 0 0-.75 1.81v.28l-.7-1.06a.76.76 0 0 1-.13-.44v-4a2.2 2.2 0 0 0-.88-1.77zm17.69 4.28l-.94-3.29a6 6 0 0 1-.24-1.68v-.53a5.43 5.43 0 0 0-.27-1.69l-.17-.5a2.18 2.18 0 0 0-2.07-1.49h-1.85a.76.76 0 0 1-.66-.36l-.8-1.19a.76.76 0 0 1-.13-.44V15.3a.76.76 0 0 1 .13-.44l.66-1a1.24 1.24 0 0 1 1-.56H28l1.34.89a2.18 2.18 0 0 0 2.19.14l.4-.2a.73.73 0 0 1 .36-.08h1.49a16.69 16.69 0 0 1 .44 3.77 16.37 16.37 0 0 1-3.35 9.98z" id="Layer_1-2" data-name="Layer 1"/></g></svg>