<svg xmlns="http://www.w3.org/2000/svg" viewBox="0 0 47.13 47.13"><defs><style>.cls-1{fill:#0057ff}</style></defs><title>Asset 16</title><g id="Layer_2" data-name="Layer 2"><g id="Layer_1-2" data-name="Layer 1"><path class="cls-1" d="M22.58 3.93h-7.85a1 1 0 0 1 0-2h7.85a1 1 0 0 1 0 2zm13.75 5.89H1a1 1 0 0 1 0-2h35.33a1 1 0 0 1 0 2zM10.8 5.89a1 1 0 0 1-1-1V1a1 1 0 1 1 2 0v3.91a1 1 0 0 1-1 .98zm15.71 0a1 1 0 0 1-1-1V1a1 1 0 1 1 2 0v3.91a1 1 0 0 1-1 .98z"/><path class="cls-1" d="M36.33 23.56a1 1 0 0 1-1-1V8.84a4.92 4.92 0 0 0-4.91-4.91 1 1 0 1 1 0-2 6.88 6.88 0 0 1 6.87 6.88v13.77a1 1 0 0 1-.96.98zM22.58 37.31H6.87A6.88 6.88 0 0 1 0 30.44V8.84A6.88 6.88 0 0 1 6.87 2a1 1 0 0 1 0 2A4.92 4.92 0 0 0 2 8.84v21.6a4.93 4.93 0 0 0 4.91 4.91h15.67a1 1 0 1 1 0 2z"/><path class="cls-1" d="M12.76 31.42a4.93 4.93 0 0 1-4.91-4.91 1 1 0 0 1 2 0 2.95 2.95 0 1 0 2.94-3h-2a1 1 0 0 1 0-2h2a2.95 2.95 0 1 0-2.94-3 1 1 0 1 1-2 0 4.91 4.91 0 1 1 7.86 3.93 4.91 4.91 0 0 1-3 8.84zm11.79 0a1 1 0 0 1-1-1V17.1l-2.25 2.25A1 1 0 0 1 19.92 18l3.93-4a1 1 0 0 1 1.68.7v15.74a1 1 0 0 1-.98.98zm11.78 15.71a10.8 10.8 0 1 1 10.8-10.8 10.81 10.81 0 0 1-10.8 10.8zm0-19.64a8.84 8.84 0 1 0 8.83 8.84 8.86 8.86 0 0 0-8.83-8.84zm9.81 0a.91.91 0 0 1-.58-.2l-3.93-2.94a1 1 0 1 1 1.18-1.57l3.92 2.94a1 1 0 0 1-.59 1.77z"/><path class="cls-1" d="M26.51 27.49a1 1 0 0 1-.79-.39 1 1 0 0 1 .2-1.38l3.93-2.94a1 1 0 0 1 1.37.19 1 1 0 0 1-.22 1.38l-3.9 2.94a.94.94 0 0 1-.59.2zm13.74 13.75a1 1 0 0 1-.69-.29L35.63 37a1 1 0 0 1-.28-.69v-5.87a1 1 0 1 1 2 0v5.48L41 39.56a1 1 0 0 1-.7 1.68z"/></g></g></svg>