<svg xmlns="http://www.w3.org/2000/svg" viewBox="0 0 15.92 15.36"><defs><style>.cls-1{fill:none}.cls-2{clip-path:url(#clip-path)}.cls-3{fill:#fff}</style><clipPath id="clip-path"><path class="cls-1" d="M0 .03h16v15.66H0z"/></clipPath></defs><title>Asset 12</title><g id="Layer_2" data-name="Layer 2"><g class="cls-2" id="Layer_1-2" data-name="Layer 1"><path class="cls-3" d="M15.08 9.41V.84A.29.29 0 0 0 15 .6a.27.27 0 0 0-.26 0l-4.62 1.9L5.44 0h-.22l-5 1.68A.28.28 0 0 0 0 2v12a.28.28 0 0 0 .12.23.28.28 0 0 0 .16.05.15.15 0 0 0 .09 0l4.92-1.64L10 14.5a3.63 3.63 0 0 0 5.13-5.09zm-.56-.54h-.06l-.18-.13-.45-.25h-.07l-.18-.07h-.12l-.18-.06h-.64a1.83 1.83 0 0 0-.33 0h-.76l-.28.07-.14.05h-.15l-.15.06-.13.07-.25.13-.1.06V3l4.19-1.73zM.56 2.15L5 .67v11.41L.56 13.57zm5 10V.74L9.77 3v6.11a3.07 3.07 0 0 0-.25.26 3.59 3.59 0 0 0-.86 2.35v.32a.31.31 0 0 1 0 .1v.39c0 .06 0 .13.05.19s0 .1 0 .15a.5.5 0 0 0 .19.13c0 .09.07.18.11.27a.47.47 0 0 0 .05.1l.09.16zm6.71 2.7a3.06 3.06 0 0 1-2.05-.85l-.22-.2-.17-.21a2.13 2.13 0 0 1-.16-.25 2.34 2.34 0 0 1-.19-.34 3.07 3.07 0 0 1-.25-.91v-.65a3.22 3.22 0 0 1 .25-.92c0-.09.09-.18.15-.27a1.43 1.43 0 0 1 .16-.24l.21-.32c.06-.06.12-.13.19-.19l.17-.15h.05l.19-.13h.05l.26-.22H11l.19-.08h.08l.18-.06h1.5l.28.08.27.1.25.13.23.14.21.16.19.2a3 3 0 0 1 .79 2.05 3.08 3.08 0 0 1-3.07 3.07z"/><path class="cls-3" d="M12.86 9.84a.36.36 0 0 0-.72 0v1.64h-1.78a.33.33 0 1 0 0 .66h1.78v1.64a.36.36 0 0 0 .72 0v-1.64h1.78a.33.33 0 1 0 0-.66h-1.78V9.84"/></g></g></svg>