<svg xmlns="http://www.w3.org/2000/svg" viewBox="0 0 49 49.46"><defs><style>.cls-1{fill:#0057ff}</style></defs><title>Asset 5</title><g id="Layer_2" data-name="Layer 2"><g id="Layer_1-2" data-name="Layer 1"><path class="cls-1" d="M35.54 9.56a18.15 18.15 0 0 1 1.57 1.31 1 1 0 0 0 .67.26 1 1 0 0 0 .68-1.7A21.91 21.91 0 0 0 36.72 8a1 1 0 1 0-1.18 1.58zM8.47 21.21a5.2 5.2 0 1 0 5.2 5.19 5.2 5.2 0 0 0-5.2-5.19zm0 8.42a3.23 3.23 0 1 1 3.23-3.23 3.23 3.23 0 0 1-3.23 3.23zM29.72 8.47a5.2 5.2 0 1 0-5.19 5.2 5.2 5.2 0 0 0 5.19-5.2zm-8.41 0a3.22 3.22 0 1 1 3.22 3.23 3.22 3.22 0 0 1-3.22-3.23z"/><path class="cls-1" d="M44.8 27.25a20.59 20.59 0 0 0-4-15.25 1 1 0 0 0-1.56 1.2A18.41 18.41 0 0 1 43 24.44a19.27 19.27 0 0 1-.1 2 8.23 8.23 0 0 0-2.39-.35 8.48 8.48 0 0 0-8.48 8.47c0 1.36.67 3.29 2 5.76a18.52 18.52 0 0 1-22.47-2.63c.47-.68 1-1.45 1.49-2.25 2.59-4.09 3.9-7.13 3.9-9a8.48 8.48 0 0 0-8.48-8.47 8.71 8.71 0 0 0-1.36.03 18.65 18.65 0 0 1 9-10.1v.53c0 1.91 1.31 4.95 3.89 9 1.88 3 3.72 5.37 3.8 5.48a1 1 0 0 0 1.56 0c.08-.11 1.92-2.52 3.8-5.48 2.58-4.09 3.89-7.13 3.89-9a8.47 8.47 0 0 0-16.47-2.9A20.61 20.61 0 0 0 4.8 18.76 8.49 8.49 0 0 0 0 26.4c0 1.91 1.31 5 3.9 9 1.87 3 3.71 5.37 3.79 5.47a1 1 0 0 0 1.57 0s.49-.64 1.16-1.58A20.51 20.51 0 0 0 35 42c.29.5.61 1 1 1.56 1.87 3 3.72 5.38 3.79 5.48a1 1 0 0 0 1.57 0c.08-.1 1.92-2.52 3.79-5.48 2.59-4.09 3.9-7.13 3.9-9a8.49 8.49 0 0 0-4.2-7.31zM24.53 2A6.51 6.51 0 0 1 31 8.47c0 2.77-4.15 9-6.5 12.27-2.32-3.22-6.5-9.5-6.5-12.27A6.51 6.51 0 0 1 24.53 2zM8.47 38.67C6.13 35.45 2 29.17 2 26.4a6.51 6.51 0 0 1 13 0c0 2.77-4.16 9.05-6.51 12.27zm32.06 8.16C38.18 43.61 34 37.34 34 34.56a6.51 6.51 0 0 1 13 0c0 2.78-4.16 9-6.5 12.27z"/><path class="cls-1" d="M40.53 29.37a5.2 5.2 0 1 0 5.19 5.19 5.2 5.2 0 0 0-5.19-5.19zm0 8.42a3.23 3.23 0 1 1 3.22-3.23 3.23 3.23 0 0 1-3.22 3.23z"/></g></g></svg>