<svg xmlns="http://www.w3.org/2000/svg" viewBox="0 0 39.14 43.33"><defs><style>.cls-1{fill:#fff}</style></defs><title>Asset 15</title><g id="Layer_2" data-name="Layer 2"><g id="Layer_1-2" data-name="Layer 1"><path class="cls-1" d="M19.57 34.44a.84.84 0 0 0-.84.85.84.84 0 0 0 .84.84.85.85 0 0 0 .85-.84.85.85 0 0 0-.85-.85z"/><path class="cls-1" d="M38.3 41.64a3.49 3.49 0 0 1-3-1.74.85.85 0 0 0-.74-.42.84.84 0 0 0-.73.42 3.47 3.47 0 0 1-2.72 1.72 74.05 74.05 0 0 0 4.24-10.7v-.12c.39-1.21.74-2.38 1.06-3.47a.14.14 0 0 0 0-.06c.38-1.28.7-2.45 1-3.43a.84.84 0 0 0-.21-.84 54.94 54.94 0 0 0-7.75-6.34l-.2-6.5a1.88 1.88 0 0 0-1.88-1.85h-3.54l-.36-3.94v-.06l-.27-2.8A1.62 1.62 0 0 0 21.62 0h-4.09a1.62 1.62 0 0 0-1.59 1.51l-.26 2.82v.06l-.37 3.94h-3.53a1.89 1.89 0 0 0-1.89 1.85l-.2 6.5A55.51 55.51 0 0 0 1.94 23a.86.86 0 0 0-.22.82c.26 1 .59 2.14 1 3.42v.08c.32 1.08.68 2.25 1.07 3.46a.56.56 0 0 0 0 .12 73.6 73.6 0 0 0 4.24 10.7 3.47 3.47 0 0 1-2.71-1.7.84.84 0 0 0-.73-.42.84.84 0 0 0-.73.42 3.49 3.49 0 0 1-3 1.74.85.85 0 1 0 0 1.69 5.19 5.19 0 0 0 3.74-1.61 5.21 5.21 0 0 0 3.75 1.61 5.13 5.13 0 0 0 1.24-.15h.06a5.12 5.12 0 0 0 2.44-1.44 5.16 5.16 0 0 0 7.49 0 5.16 5.16 0 0 0 7.49 0 5.25 5.25 0 0 0 2.43 1.44h.09a5.05 5.05 0 0 0 1.23.15 5.17 5.17 0 0 0 3.74-1.61 5.21 5.21 0 0 0 3.75 1.61.85.85 0 0 0 0-1.69zm-3.11-16.08c-3.72-3.07-10.28-7.71-14.77-9.77v-2.25a50.77 50.77 0 0 1 7.66 4.26.67.67 0 0 0 .14.09 54 54 0 0 1 7.44 6c-.14.51-.3 1.11-.47 1.67zM17.63 1.69h3.89l.17 1.91h-4.24zm-.34 3.6h4.56l.28 3H17zm-5.7 4.94a.2.2 0 0 1 .19-.21h15.59a.22.22 0 0 1 .19.21l.16 5.32a49.22 49.22 0 0 0-7.82-4.06h-.66a49.22 49.22 0 0 0-7.82 4.06zm-.67 7.67l.15-.1a50.29 50.29 0 0 1 7.66-4.26v2.25c-4.5 2.06-11.06 6.7-14.73 9.77-.17-.6-.32-1.16-.47-1.68a53.17 53.17 0 0 1 7.39-5.98zm16.88 22h-.67a3.48 3.48 0 0 1-6 0 .84.84 0 0 0-1.46 0 3.48 3.48 0 0 1-6 0H11.8a3.41 3.41 0 0 1-2 1.41 66.84 66.84 0 0 1-4.23-10.44l.72-.63c.51-.45 1.06-.91 1.62-1.36a.85.85 0 0 0-1.06-1.32c-.58.47-1.15 1-1.67 1.41l-.18.14a110 110 0 0 1-.54-1.77 85.24 85.24 0 0 1 14.26-9.67v15.18a.84.84 0 0 0 .84.85.85.85 0 0 0 .85-.85V17.67a85.24 85.24 0 0 1 14.26 9.67q-.26.87-.54 1.77L34 29c-1.09-1-2.29-1.92-3.66-2.95a.85.85 0 0 0-1 1.36c1.31 1 2.51 1.94 3.55 2.86l.73.63a67.83 67.83 0 0 1-4.23 10.44 3.41 3.41 0 0 1-1.59-1.44z"/><path class="cls-1" d="M9.9 26.07a.83.83 0 0 0-1.14 0 1.08 1.08 0 0 0-.18.24.85.85 0 0 0 1.39.94.84.84 0 0 0-.07-1.18z"/></g></g></svg>