<svg xmlns="http://www.w3.org/2000/svg" viewBox="0 0 44.75 44.75"><defs><style>.cls-1{fill:#fff}</style></defs><title>Asset 18</title><g id="Layer_2" data-name="Layer 2"><g id="Layer_1-2" data-name="Layer 1"><path class="cls-1" d="M35.42 34.81l9-21.83a3.63 3.63 0 0 0-2-4.74l-7-2.93v-.75A4.57 4.57 0 0 0 30.85 0H2.69A2.7 2.7 0 0 0 0 2.69v39.37a2.7 2.7 0 0 0 2.69 2.69h28.16a4.57 4.57 0 0 0 4.57-4.56zm0-19.63l1 .42a.81.81 0 0 0 1.06-.44.75.75 0 0 0 0-.62.81.81 0 0 0-.44-.45l-1.61-.66V7.07l6.47 2.67a2 2 0 0 1 1.1 2.62l-1.48 3.58-1.12-.46a.75.75 0 0 0-.62 0 .79.79 0 0 0-.44.44.83.83 0 0 0 0 .62.86.86 0 0 0 .44.44l1.12.46-5.48 13.15zm-29.79 28H2.69a1.06 1.06 0 0 1-1.06-1.07V2.69a1.05 1.05 0 0 1 1.06-1.06h2.94zm28.16-29.36a.61.61 0 0 0 0 .27v26.1a2.94 2.94 0 0 1-2.94 2.94H7.26V1.63h23.59a2.94 2.94 0 0 1 2.94 2.93z"/><path class="cls-1" d="M13.25 34.44h15.49a.82.82 0 0 0 0-1.63H13.25a.82.82 0 0 0 0 1.63zm7.28-26a9.25 9.25 0 1 0 9.25 9.25 9.27 9.27 0 0 0-9.25-9.25zM24.22 11a7.65 7.65 0 0 1 3.88 5.72v.15h-4v-4.81a4 4 0 0 0-.11-.91l.01-.28zm-7.39 13.36A7.65 7.65 0 0 1 13 18.64v-.14h4v4.81a3.44 3.44 0 0 0 .11.91l.07.28zM17 11.15a3.49 3.49 0 0 0-.11.91v4.82h-4v-.15A7.65 7.65 0 0 1 16.83 11l.25-.14zm5.52 12.16a2 2 0 0 1-4 0V18.5h4zm0-6.43h-4v-4.82a2 2 0 0 1 4 0zm5.57 1.76a7.65 7.65 0 0 1-3.88 5.72l-.21.14.08-.28a4 4 0 0 0 .11-.91V18.5h4z"/></g></g></svg>