<svg xmlns="http://www.w3.org/2000/svg" viewBox="0 0 91 91"><path d="M20.2 65.7c.3.1.6.1.9.1 1.5 0 3-1 3.4-2.6l1.2-4.4c.5-1.9-.6-3.8-2.5-4.3s-3.8.6-4.3 2.5l-1.2 4.4c-.5 1.8.6 3.8 2.5 4.3zm26.6-11.2c-1.8-.5-3.8.6-4.3 2.5l-1.2 4.4c-.5 1.9.6 3.8 2.5 4.3.3.1.6.1.9.1 1.5 0 3-1 3.4-2.6l1.2-4.4c.5-1.9-.6-3.8-2.5-4.3zm-14 8.1c-1.9-.5-3.8.6-4.3 2.5l-1.2 4.4c-.5 1.9.6 3.8 2.5 4.3.3.1.6.1.9.1 1.5 0 3-1 3.4-2.6l1.2-4.4c.5-1.9-.6-3.8-2.5-4.3zm-14 8.1c-1.9-.5-3.8.6-4.3 2.5l-1.2 4.4c-.5 1.9.6 3.8 2.5 4.3.3.1.6.1.9.1 1.5 0 3-1 3.4-2.6l1.2-4.4c.5-1.8-.6-3.8-2.5-4.3zm23.7 0c-1.9-.5-3.8.6-4.3 2.5L37 77.6c-.5 1.9.6 3.8 2.5 4.3.3.1.6.1.9.1 1.5 0 3-1 3.4-2.6L45 75c.4-1.8-.7-3.8-2.5-4.3zm-14.1 8.2c-1.9-.5-3.8.6-4.3 2.5L23 85.8c-.5 1.9.6 3.8 2.5 4.3.3.1.6.1.9.1 1.5 0 3-1 3.4-2.6l1.2-4.4c.4-1.9-.7-3.8-2.6-4.3zm45.7-46c0-8.6-7-15.6-15.6-15.6-3.1 0-6.2.9-8.7 2.7-1.4.9-1.7 2.8-.8 4.2.9 1.4 2.8 1.7 4.2.8 1.6-1.1 3.5-1.6 5.4-1.6 5.3 0 9.6 4.3 9.6 9.6 0 1.6-.4 3.1-1.1 4.4-.8 1.5-.2 3.3 1.3 4 .4.2.9.3 1.4.3 1.1 0 2.1-.6 2.7-1.6 1-2.2 1.6-4.7 1.6-7.2zM58.5 12.5c1.7 0 3-1.3 3-3V3.8c0-1.7-1.3-3-3-3s-3 1.3-3 3v5.7c0 1.7 1.4 3 3 3zm29.1 17.4h-5.7c-1.7 0-3 1.3-3 3s1.3 3 3 3h5.7c1.7 0 3-1.3 3-3s-1.4-3-3-3zM75 19.4c.8 0 1.5-.3 2.1-.9l4-4c1.2-1.2 1.2-3.1 0-4.2-1.1-1.3-3-1.3-4.2-.1l-4 4c-1.2 1.2-1.2 3.1 0 4.2.6.7 1.3 1 2.1 1zm2.1 27.9c-1.2-1.2-3.1-1.2-4.2 0-1.2 1.2-1.2 3.1 0 4.2l4 4c.6.6 1.4.9 2.1.9.8 0 1.5-.3 2.1-.9 1.2-1.2 1.2-3.1 0-4.2l-4-4zM39.9 18.5c.6.6 1.4.9 2.1.9.8 0 1.5-.3 2.1-.9 1.2-1.2 1.2-3.1 0-4.2l-4-4C38.9 9 37 9 35.8 10.2c-1.2 1.2-1.2 3.1 0 4.2l4.1 4.1z"/><path d="M51.2 38.9h-1.5c-.4-1.6-1-3.6-2.1-5.6-2.2-4.3-6.8-9.3-16-9.3s-13.8 5.1-16 9.4c-1.1 2.1-1.7 4.2-2 5.8C5.8 40.4.4 46.4.4 54.4c0 5 2.4 9.7 6.4 12.5 1.6 1.1 3.8.8 4.9-.8 1.1-1.6.8-3.8-.8-4.9-2.2-1.5-3.4-4-3.4-6.8 0-5.1 3.7-8.5 9.2-8.5 1.9 0 3.4-1.5 3.5-3.4 0-1.2.7-11.5 11.4-11.5 10.7 0 11.6 10.4 11.7 11.6.1 1.9 1.6 3.3 3.5 3.3h4.5c5.5 0 9.2 3.4 9.2 8.5 0 4.2-2.7 7.5-6.9 8.3-1.9.4-3.1 2.2-2.8 4.1.3 1.7 1.8 2.8 3.4 2.8.2 0 .4 0 .7-.1 7.4-1.4 12.6-7.7 12.6-15.2-.1-8.9-6.9-15.4-16.3-15.4z"/></svg>