<svg xmlns="http://www.w3.org/2000/svg" viewBox="0 0 91 91"><path d="M34.1 57.1c1.7 0 3-1.3 3-3v-2.8c0-1.7-1.3-3-3-3s-3 1.3-3 3v2.8c0 1.7 1.3 3 3 3zm0 5.3c-1.1 0-2.1.4-2.8 1.2-.8.7-1.2 1.8-1.2 2.8 0 1.1.4 2.1 1.2 2.8.7.8 1.8 1.2 2.8 1.2 1 0 2.1-.4 2.8-1.2.7-.7 1.2-1.8 1.2-2.8 0-1-.4-2.1-1.2-2.8-.8-.8-1.8-1.2-2.8-1.2zm0 13.3c-1.7 0-3 1.3-3 3v2.8c0 1.7 1.3 3 3 3s3-1.3 3-3v-2.8c0-1.7-1.4-3-3-3zm11.6-19.5l-2.5 1.4c-1.4.8-1.9 2.7-1.1 4.1.6 1 1.6 1.5 2.6 1.5.5 0 1-.1 1.5-.4l2.5-1.4c1.4-.8 1.9-2.7 1.1-4.1-.9-1.4-2.7-1.9-4.1-1.1zM21.9 69.9l-2.5 1.4c-1.4.8-1.9 2.7-1.1 4.1.6 1 1.6 1.5 2.6 1.5.5 0 1-.1 1.5-.4l2.5-1.4c1.4-.8 1.9-2.7 1.1-4.1-.8-1.4-2.6-1.9-4.1-1.1zm26.8 1.5L46.2 70c-1.4-.8-3.3-.3-4.1 1.1-.8 1.4-.3 3.3 1.1 4.1l2.5 1.4c.5.3 1 .4 1.5.4 1 0 2-.5 2.6-1.5.8-1.5.3-3.3-1.1-4.1zm-29.2-10l2.5 1.4c.5.3 1 .4 1.5.4 1 0 2-.5 2.6-1.5.8-1.4.3-3.3-1.1-4.1l-2.5-1.4c-1.4-.8-3.3-.3-4.1 1.1-.9 1.5-.4 3.3 1.1 4.1zm69-29.2c-.6-.9-1.7-1.4-2.7-1.3-4.8.4-9.5-2.1-11.9-6.3-2.4-4.2-2.2-9.5.5-13.4.6-.9.7-2.1.2-3-.5-1-1.5-1.6-2.6-1.7-3.7-.2-7.4.8-10.6 2.6-5.3 3.1-8.9 8.4-9.7 14.5-.2 1.6.9 3.1 2.6 3.4 1.7.2 3.1-.9 3.4-2.6.6-4.3 3-7.9 6.7-10.1.8-.5 1.6-.8 2.5-1.1-1.4 4.8-.8 10 1.8 14.4s6.8 7.5 11.6 8.7c-.7.6-1.4 1.1-2.2 1.6-.8.5-1.7.8-2.5 1.1-1.6.5-2.4 2.2-1.9 3.8.4 1.3 1.6 2.1 2.8 2.1.3 0 .6 0 .9-.2 1.3-.4 2.5-1 3.6-1.6 3.2-1.9 5.8-4.6 7.6-7.9.6-.9.5-2.1-.1-3z"/><path d="M53.3 35.4h-1.1c-.4-1.6-1-3.4-2-5.3-3.3-6.2-9.2-9.6-16.5-9.6-7.4 0-13.3 3.4-16.5 9.6-1 2-1.6 4-2 5.6C7.3 37.1 2 43.3 2 51.4c0 4.4 1.7 8.4 4.7 11.4 1.6 1.5 4.1 1.5 5.7-.1 1.5-1.6 1.5-4.1-.1-5.7-1.5-1.5-2.3-3.5-2.3-5.7 0-4.8 3.5-8 8.7-8 2.2 0 3.9-1.7 4-3.9 0-1.1.6-11.1 10.9-11.1 4.4 0 7.5 1.7 9.4 5.1 1.6 2.9 1.8 6 1.8 6 .1 2.1 1.9 3.8 4 3.8h4.5c5.2 0 8.7 3.2 8.7 8 0 3.5-2 6.3-5.3 7.5-2.1.7-3.2 3-2.5 5.1.6 1.7 2.1 2.7 3.8 2.7.4 0 .9-.1 1.3-.2 6.5-2.2 10.6-8.1 10.6-15 .1-9.2-7-15.9-16.6-15.9z"/></svg>