<svg xmlns="http://www.w3.org/2000/svg" viewBox="0 0 91 91"><path d="M74.4 34.8c0-8.6-7-15.6-15.6-15.6-3.1 0-6.2.9-8.7 2.7-1.4.9-1.7 2.8-.8 4.2.9 1.4 2.8 1.7 4.2.8 1.6-1.1 3.5-1.6 5.4-1.6 5.3 0 9.6 4.3 9.6 9.6 0 1.6-.4 3.1-1.1 4.4-.8 1.5-.2 3.3 1.3 4 .4.2.9.3 1.4.3 1.1 0 2.1-.6 2.7-1.6 1-2.2 1.6-4.7 1.6-7.2zM58.8 14.4c1.7 0 3-1.3 3-3V5.7c0-1.7-1.3-3-3-3s-3 1.3-3 3v5.7c0 1.7 1.3 3 3 3zm29 17.4h-5.7c-1.7 0-3 1.3-3 3s1.3 3 3 3h5.7c1.7 0 3-1.3 3-3s-1.3-3-3-3zM75.3 21.3c.8 0 1.5-.3 2.1-.9l4-4c1.2-1.2 1.2-3.1 0-4.2-1.2-1.2-3.1-1.2-4.2 0l-4 4c-1.2 1.2-1.2 3.1 0 4.2.5.6 1.3.9 2.1.9zm2.1 27.9c-1.2-1.2-3.1-1.2-4.2 0-1.2 1.2-1.2 3.1 0 4.2l4 4c.6.6 1.4.9 2.1.9.8 0 1.5-.3 2.1-.9 1.2-1.2 1.2-3.1 0-4.2l-4-4zM40.1 20.4c.6.6 1.4.9 2.1.9.8 0 1.5-.3 2.1-.9 1.2-1.2 1.2-3.1 0-4.2l-4-4c-1.2-1.2-3.1-1.2-4.2 0-1.2 1.2-1.2 3.1 0 4.2l4 4zm-7 52.1c-.8 0-1.5.4-2 1-.9 1.2-4 5.5-4 8.5 0 3.9 3 6.3 6 6.3 2.9 0 6-2.4 6-6.3 0-3.1-3-7.3-4-8.5-.5-.7-1.2-1-2-1zm-8-11.5c-.8-1-2.4-1-3.2 0-.7.9-3 4.2-3 6.5 0 3 2.3 4.9 4.6 4.9s4.6-1.8 4.6-4.9c0-2.4-2.3-5.6-3-6.5zm14.1-5.9c-.5 0-.9.2-1.2.6-.6.8-2.6 3.6-2.6 5.6 0 2.5 1.9 4 3.8 4s3.8-1.5 3.8-4c0-1.3-2.1-6.2-3.8-6.2z"/><path d="M51.5 40.3h-1.1c-.4-1.6-1-3.4-2-5.3-3.3-6.2-9.2-9.6-16.5-9.6-7.4 0-13.3 3.4-16.5 9.6-1 2-1.6 4-2 5.6C5.5 42 .2 48.2.2 56.3c0 5.8 2.9 10.9 7.9 13.8 1.9 1.1 4.4.4 5.5-1.5 1.1-1.9.4-4.4-1.5-5.5-2.4-1.4-3.8-3.9-3.8-6.8 0-4.8 3.5-8 8.7-8 2.2 0 3.9-1.7 4-3.9 0-1.1.6-11.1 10.9-11.1 4.4 0 7.5 1.7 9.4 5.1 1.6 2.9 1.8 6 1.8 6 .1 2.1 1.9 3.8 4 3.8h4.5c5.2 0 8.7 3.2 8.7 8 0 3.9-2.7 8-8.7 8h-2.2c-2.2 0-4 1.8-4 4s1.8 4 4 4h2.2c9.5 0 16.7-6.9 16.7-16-.1-9.2-7.1-15.9-16.8-15.9z"/></svg>