<svg xmlns="http://www.w3.org/2000/svg" viewBox="0 0 91 91"><path d="M31.7 15.1c-2.1-.6-4.3.7-4.9 2.8L24.6 26c-.6 2.1.7 4.3 2.8 4.9.3.1.7.1 1 .1 1.8 0 3.4-1.2 3.9-3l2.2-8.1c.6-2.1-.7-4.3-2.8-4.8zm40 0c-2.1-.6-4.3.7-4.9 2.8L64.6 26c-.6 2.1.7 4.3 2.8 4.9.3.1.7.1 1 .1 1.8 0 3.4-1.2 3.9-3l2.2-8.1c.6-2.1-.7-4.3-2.8-4.8zm-24.1 15c-2.1-.6-4.3.7-4.9 2.8L40.5 41c-.6 2.1.7 4.3 2.8 4.9.3.1.7.1 1 .1 1.8 0 3.4-1.2 3.9-3l2.2-8.1c.6-2.1-.6-4.3-2.8-4.8zm-24 15c-2.1-.6-4.3.7-4.9 2.8L16.5 56c-.6 2.1.7 4.3 2.8 4.9.3.1.7.1 1 .1 1.8 0 3.4-1.2 3.9-3l2.2-8.1c.6-2.1-.7-4.3-2.8-4.8zm40 0c-2.1-.6-4.3.7-4.9 2.8L56.5 56c-.6 2.1.7 4.3 2.8 4.9.3.1.7.1 1 .1 1.8 0 3.4-1.2 3.9-3l2.2-8.1c.6-2.1-.7-4.3-2.8-4.8zm-24 15c-2.1-.6-4.3.7-4.9 2.8L32.5 71c-.6 2.1.7 4.3 2.8 4.9.3.1.7.1 1 .1 1.8 0 3.4-1.2 3.9-3l2.2-8.1c.6-2.1-.7-4.3-2.8-4.8z"/></svg>