<svg xmlns="http://www.w3.org/2000/svg" viewBox="0 0 91 91"><path d="M45.5 31.9c2.2 0 4-1.8 4-4v-4c0-2.2-1.8-4-4-4s-4 1.8-4 4v4c0 2.3 1.8 4 4 4zm0 8.6c-1.3 0-2.6.5-3.5 1.5-.9.9-1.5 2.2-1.5 3.5 0 1.3.5 2.6 1.5 3.5.9.9 2.2 1.5 3.5 1.5 1.3 0 2.6-.5 3.5-1.5.9-.9 1.5-2.2 1.5-3.5 0-1.3-.5-2.6-1.5-3.5-.9-1-2.2-1.5-3.5-1.5zm0 18.6c-2.2 0-4 1.8-4 4v4c0 2.2 1.8 4 4 4s4-1.8 4-4v-4c0-2.3-1.8-4-4-4zm15.2-18.4c.7 0 1.4-.2 2-.5l3.5-2c1.9-1.1 2.6-3.6 1.5-5.5s-3.6-2.6-5.5-1.5l-3.5 2c-1.9 1.1-2.6 3.6-1.5 5.5.8 1.3 2.1 2 3.5 2zM28.3 50.8l-3.5 2c-1.9 1.1-2.6 3.6-1.5 5.5.7 1.3 2.1 2 3.5 2 .7 0 1.4-.2 2-.5l3.5-2c1.9-1.1 2.6-3.6 1.5-5.5s-3.6-2.6-5.5-1.5zm37.9 2l-3.5-2c-1.9-1.1-4.4-.4-5.5 1.5-1.1 1.9-.4 4.4 1.5 5.5l3.5 2c.6.4 1.3.5 2 .5 1.4 0 2.7-.7 3.5-2 1.1-1.9.4-4.4-1.5-5.5zM32.3 33.3l-3.5-2c-1.9-1.1-4.4-.5-5.5 1.5s-.5 4.4 1.5 5.5l3.5 2c.6.4 1.3.5 2 .5 1.4 0 2.7-.7 3.5-2 1.1-2 .4-4.4-1.5-5.5z"/></svg>