<svg xmlns="http://www.w3.org/2000/svg" viewBox="0 0 91 91"><path d="M57.2 16.2c2.2 0 4-1.8 4-4V4.1c0-2.2-1.8-4-4-4s-4 1.8-4 4v8.1c0 2.3 1.8 4 4 4zm0 58.6c-2.2 0-4 1.8-4 4v8.1c0 2.2 1.8 4 4 4s4-1.8 4-4v-8.1c0-2.3-1.8-4-4-4zM27.9 45.5c0-2.2-1.8-4-4-4h-8.1c-2.2 0-4 1.8-4 4s1.8 4 4 4h8.1c2.3 0 4-1.8 4-4zm3 20.7L25.1 72c-1.6 1.6-1.6 4.1 0 5.7.8.8 1.8 1.2 2.8 1.2 1 0 2-.4 2.8-1.2l5.8-5.8c1.6-1.6 1.6-4.1 0-5.7-1.5-1.6-4.1-1.6-5.6 0zm0-41.4c.8.8 1.8 1.2 2.8 1.2 1 0 2-.4 2.8-1.2 1.6-1.6 1.6-4.1 0-5.7l-5.8-5.8c-1.6-1.6-4.1-1.6-5.7 0-1.6 1.6-1.6 4.1 0 5.7l5.9 5.8zm26.3-1.3c-12.1 0-22 9.9-22 22s9.9 22 22 22 22-9.9 22-22-9.9-22-22-22zm0 36c-7.7 0-14-6.3-14-14s6.3-14 14-14c.8 0 1.6.1 2.4.2-3.9 3.3-6.4 8.2-6.4 13.8 0 5.5 2.5 10.5 6.4 13.8-.8.1-1.6.2-2.4.2z"/></svg>