<svg xmlns="http://www.w3.org/2000/svg" viewBox="0 0 91 91"><path d="M45.5 26.3c2.2 0 4-1.8 4-4v-8.1c0-2.2-1.8-4-4-4s-4 1.8-4 4v8.1c0 2.2 1.8 4 4 4zm29.3 29.3c0 2.2 1.8 4 4 4h8.1c2.2 0 4-1.8 4-4s-1.8-4-4-4h-8.1c-2.3 0-4 1.8-4 4zm-70.7 4h8.1c2.2 0 4-1.8 4-4s-1.8-4-4-4H4.1c-2.2 0-4 1.8-4 4s1.8 4 4 4zM69 36.1c1 0 2-.4 2.8-1.2l5.8-5.8c1.6-1.6 1.6-4.1 0-5.7-1.6-1.6-4.1-1.6-5.7 0l-5.8 5.8c-1.6 1.6-1.6 4.1 0 5.7.9.8 1.9 1.2 2.9 1.2zm-49.8-1.2c.8.8 1.8 1.2 2.8 1.2 1 0 2-.4 2.8-1.2 1.6-1.6 1.6-4.1 0-5.7L19 23.4c-1.6-1.6-4.1-1.6-5.7 0-1.6 1.6-1.6 4.1 0 5.7l5.9 5.8zm6.3 29.8c.9 2 3.3 2.9 5.3 2 2-.9 2.9-3.3 2-5.3-.8-1.8-1.3-3.8-1.3-5.8 0-7.7 6.3-14 14-14s14 6.3 14 14c0 2-.4 4-1.3 5.8-.9 2 0 4.4 2 5.3.5.2 1.1.4 1.7.4 1.5 0 3-.9 3.6-2.3 1.3-2.9 2-6 2-9.1 0-12.1-9.9-22-22-22s-22 9.9-22 22c0 3.1.7 6.1 2 9zm61.4 8.1H4.1c-2.2 0-4 1.8-4 4s1.8 4 4 4h82.8c2.2 0 4-1.8 4-4s-1.8-4-4-4z"/><path d="M43.4 48.5l-6.1 6.1c-1.2 1.2-1.2 3.1 0 4.2 1.2 1.2 3.1 1.2 4.2 0l4-4 4 4c.6.6 1.4.9 2.1.9.8 0 1.5-.3 2.1-.9 1.2-1.2 1.2-3.1 0-4.2l-6.1-6.1c-1.2-1.1-3-1.1-4.2 0z"/></svg>