<svg xmlns="http://www.w3.org/2000/svg" viewBox="0 0 50.72 31.6"><defs><style>.cls-1{fill:#fff}</style></defs><title>Asset 11</title><g id="Layer_2" data-name="Layer 2"><g id="Layer_1-2" data-name="Layer 1"><path class="cls-1" d="M4.78 23.3a.82.82 0 0 0 1.11 0l1.7-1.71h2.28L9 26.11v.57a.52.52 0 0 0 .11.1l.11.06h2.66L12 27h.15l.06-.05v-.06l3.52-5.13h2.21a.78.78 0 0 0 .78-.78.79.79 0 0 0-.78-.79h-2.07v-.05l-3.52-5.24v-.06l-.11-.07H9.57l-.15.05h-.06l-.09.07v.06l-.05.06v.11l-.22.07a.35.35 0 0 1 0 .07v.24l.87 4.5H7.48l-1.65-1.62-.13-.06H5l-.21.12-.08.13v4.01a.82.82 0 0 0 .07.72zm6.51-7.17v.06L14 20h-2.5l-.75-3.89zm.18 5.46H14l-2.68 3.89h-.57zm12.07 4.55h7.28a.79.79 0 0 0 0-1.57h-7.28a.79.79 0 1 0 0 1.57zm0-4.55h7.28a.78.78 0 0 0 .78-.78.79.79 0 0 0-.78-.79h-7.28a.79.79 0 0 0-.79.79.78.78 0 0 0 .79.78zm0-4.59h7.28a.79.79 0 0 0 0-1.57h-7.28a.79.79 0 1 0 0 1.57zm17.29 2.11a.79.79 0 0 0-.79.79v6.37a.79.79 0 0 0 .79.78.78.78 0 0 0 .78-.78V19.9a.78.78 0 0 0-.78-.79zm0-4.55a.79.79 0 0 0-.79.79v.91a.79.79 0 0 0 .79.78.78.78 0 0 0 .78-.78v-.91a.78.78 0 0 0-.78-.79z"/><path class="cls-1" d="M46.29 0H8.07a4.44 4.44 0 0 0-4.43 4.43v5.65h-.1A4.44 4.44 0 0 0 0 14.44v12.74a4.43 4.43 0 0 0 4.43 4.42h38.22a4.43 4.43 0 0 0 4.43-4.42v-5.66h.1a4.44 4.44 0 0 0 3.54-4.33V4.43A4.44 4.44 0 0 0 46.29 0zm-10.8 30H4.43a2.86 2.86 0 0 1-2.86-2.85V14.44a2.86 2.86 0 0 1 2.86-2.86h31.06zM14.35 6.13h.57v.06L17.58 10h-2.47l-.46-2.38zm31.16 21.05A2.86 2.86 0 0 1 42.65 30h-5.59V11.58h5.59a2.87 2.87 0 0 1 2.86 2.86zm3.64-10a2.87 2.87 0 0 1-1.91 2.69l-.16.06v-5.49a4.42 4.42 0 0 0-1.77-3.54h-.05v-1a.79.79 0 0 0-.79-.79.78.78 0 0 0-.78.79v.24h-.16a4.24 4.24 0 0 0-.88-.09H19.51l-2.13-3.1L16 4.9l-.05-.06-.1-.07h-2.56l-.09.07-.05.06v.29a.26.26 0 0 0 0 .07.28.28 0 0 0 0 .08v.16l.34 4.5h-2.37l-1-1-.63-.63-.12-.06H8.7l-.2.12-.08.13V10h-3V4.43a2.86 2.86 0 0 1 2.65-2.86h31.06v5.59a.79.79 0 0 0 .79.78.78.78 0 0 0 .78-.78V1.57h5.59a2.87 2.87 0 0 1 2.86 2.86z"/><path class="cls-1" d="M34.46 5.46h-7.28a.79.79 0 1 0 0 1.57h7.28a.79.79 0 0 0 0-1.57zm10.01-.91a.78.78 0 0 0-.78.78v.92a.78.78 0 0 0 .78.78.79.79 0 0 0 .79-.78v-.92a.79.79 0 0 0-.79-.78z"/></g></g></svg>