<svg xmlns="http://www.w3.org/2000/svg" viewBox="0 0 35.5 35.49"><defs><style>.cls-1{fill:#fff}</style></defs><title>Asset 2</title><g id="Layer_2" data-name="Layer 2"><g id="Layer_1-2" data-name="Layer 1"><path class="cls-1" d="M12.44 4.78a3.47 3.47 0 1 0 3.48 3.47 3.48 3.48 0 0 0-3.48-3.47zm0 5.43a2 2 0 1 1 2-2 2 2 0 0 1-2 2zM6.7 20.19h11.49a.76.76 0 0 0 .76-.75v-.15a6.5 6.5 0 0 0-13 .15.75.75 0 0 0 .75.75zm.86-1.8a5 5 0 0 1 9.77 0l.07.3H7.49zm6.38 5.44H6a.76.76 0 0 0 0 1.51h8a.76.76 0 0 0 0-1.51zm-4.4 6.27h4.4a.75.75 0 0 0 0-1.5h-4.4a.75.75 0 0 0 0 1.5z"/><path class="cls-1" d="M24.87 27.71l9.72-11.94a3.92 3.92 0 0 0 .89-2.92A4 4 0 0 0 34 10.14a4 4 0 0 0-5.64.58L24.88 15V2.64A2.65 2.65 0 0 0 22.24 0H2.64A2.65 2.65 0 0 0 0 2.64V29a2.58 2.58 0 0 0 .77 1.86l3.89 3.9a2.66 2.66 0 0 0 1.87.77h15.7a2.65 2.65 0 0 0 2.64-2.65zm4.77-16.13a2.49 2.49 0 0 1 3.87 3.14l-.15.22-3.9-3.17zM5 32.94l-2.44-2.45H5zM22.24 34H6.51v-4.26a.76.76 0 0 0-.75-.74H1.5V2.64a1.14 1.14 0 0 1 1.13-1.13h19.6a1.13 1.13 0 0 1 1.13 1.13v14.23l-5.89 7.24a.74.74 0 0 0-.17.55l.48 4.59a.74.74 0 0 0 .82.67l4.76-.5v3.44A1.15 1.15 0 0 1 22.24 34zm-3.33-8.46L22 28l-2.8.3zm4.45 1.68l-3.9-3.16 9.05-11.12 3.9 3.16z"/></g></g></svg>