<svg xmlns="http://www.w3.org/2000/svg" viewBox="0 0 1000 1000"><path d="M767.9 88.4c38.4 0 74.5 15 101.6 42.1 27.1 27.1 42.1 63.2 42.1 101.6v535.8c0 38.4-15 74.5-42.1 101.6-27.1 27.1-63.2 42.1-101.6 42.1H232.1c-38.4 0-74.5-15-101.6-42.1-27.1-27.1-42.1-63.2-42.1-101.6V232.1c0-38.4 15-74.5 42.1-101.6 27.1-27.1 63.2-42.1 101.6-42.1h535.8m0-78.4H232.1C109.4 10 10 109.4 10 232.1v535.8C10 890.6 109.4 990 232.1 990h535.8C890.6 990 990 890.6 990 767.9V232.1C990 109.4 890.6 10 767.9 10z"/><path d="M853 256c1.6 1.1 3.6 2.5-35.7-35.4 0 0-28.6-21-65.5 14.8L385.9 634l-146-185.1c-14.7-14.3-37.4-14.9-53.6-3.1 1.2-1.5 1.8-3.3 3.2-4.7l-43.8 43.3c1.4-1.4 3.3-2 4.8-3.1-12.1 15.7-11.5 37.7 3.2 52L347 774.4c10.7 10.4 25.8 13.3 39.5 9.8 13.3 2.9 27.6 0 38-10.1l413.1-454.6c14.8-14.2 27.5-47.9 15.4-63.5"/></svg>