<svg xmlns="http://www.w3.org/2000/svg" viewBox="0 0 49.5 49.04"><defs><style>.cls-1,.cls-2{fill:#0057ff}.cls-2{stroke:#0057ff;stroke-miterlimit:10}</style></defs><title>Asset 4</title><g id="Layer_2" data-name="Layer 2"><g id="Layer_1-2" data-name="Layer 1"><path class="cls-1" d="M12.9 7.44V.85c0-.33-.36-.6-.8-.6s-.8.27-.8.6v6.59c0 .33.36.6.8.6s.8-.27.8-.6z"/><path class="cls-1" d="M12.1 8.29a1 1 0 0 1-1-.85V.85a1 1 0 0 1 1-.85 1 1 0 0 1 1.05.85v6.59a1 1 0 0 1-1.05.85zm0-7.79c-.33 0-.55.18-.55.35v6.59c0 .17.22.35.55.35s.55-.18.55-.35V.85c0-.17-.23-.35-.55-.35zm19.8 6.94V.85c0-.33-.36-.6-.8-.6s-.8.27-.8.6v6.59c0 .33.36.6.8.6s.8-.27.8-.6z"/><path class="cls-1" d="M31.1 8.29a1 1 0 0 1-1.05-.85V.85a1.07 1.07 0 0 1 2.1 0v6.59a1 1 0 0 1-1.05.85zm0-7.79c-.33 0-.55.18-.55.35v6.59c0 .17.22.35.55.35s.55-.18.55-.35V.85c0-.17-.23-.35-.55-.35z"/><rect class="cls-2" x="9" y="20.54" width="2.5" height="4" rx="1.25" ry="1.25" transform="rotate(-90 10.25 22.54)"/><rect class="cls-2" x="9" y="30.54" width="2.5" height="4" rx="1.25" ry="1.25" transform="rotate(-90 10.25 32.54)"/><rect class="cls-2" x="20" y="30.54" width="2.5" height="4" rx="1.25" ry="1.25" transform="rotate(-90 21.25 32.54)"/><rect class="cls-2" x="20" y="20.54" width="2.5" height="4" rx="1.25" ry="1.25" transform="rotate(-90 21.25 22.54)"/><rect class="cls-2" x="31" y="20.54" width="2.5" height="4" rx="1.25" ry="1.25" transform="rotate(-90 32.25 22.54)"/><path class="cls-1" d="M15.5 3.54H32v2H15.5zm26.5 4a4 4 0 0 0-4-4h-3.5v2H38a2 2 0 0 1 2 2v15.74a13.34 13.34 0 0 1 2 .52zm-38 32a2 2 0 0 1-2-2v-30a2 2 0 0 1 2-2h9v-2H4a4 4 0 0 0-4 4v30a4 4 0 0 0 4 4h20.26a13.34 13.34 0 0 1-.52-2z"/><path class="cls-1" d="M1.5 12.04h40v2h-40zm35.39 24.61l-4.05-4.22-2.34 2 6.39 8.21 11.86-12.77-1.82-1.83-10.04 8.61z"/><path class="cls-1" d="M47.23 34.75A10.18 10.18 0 0 1 47.5 37a10 10 0 1 1-10-10 9.9 9.9 0 0 1 5.92 2L45 27.67A12 12 0 1 0 49.5 37a11.75 11.75 0 0 0-.7-4z"/></g></g></svg>