<svg xmlns="http://www.w3.org/2000/svg" viewBox="0 0 18.32 9.97"><defs><style>.cls-1{fill:none}.cls-2{clip-path:url(#clip-path)}.cls-3{fill:#6d6d6d}</style><clipPath id="clip-path"><path class="cls-1" d="M0 0h18.34v10H0z"/></clipPath></defs><title>Asset 1</title><g id="Layer_2" data-name="Layer 2"><g id="Layer_1-2" data-name="Layer 1"><g class="cls-2"><path class="cls-3" d="M9.16 10a11.19 11.19 0 0 1-6.41-2.36A16.47 16.47 0 0 1 .13 5.33a.52.52 0 0 1 0-.68 15.7 15.7 0 0 1 2.62-2.32A11.26 11.26 0 0 1 9.16 0a11.26 11.26 0 0 1 6.41 2.33 16 16 0 0 1 2.63 2.32.52.52 0 0 1 0 .68 16.85 16.85 0 0 1-2.63 2.31A11.19 11.19 0 0 1 9.16 10zM1.23 5a16.64 16.64 0 0 0 2.14 1.81 10.4 10.4 0 0 0 5.79 2.13A10.4 10.4 0 0 0 15 6.81 16 16 0 0 0 17.09 5 15.86 15.86 0 0 0 15 3.16 10.4 10.4 0 0 0 9.16 1a10.4 10.4 0 0 0-5.79 2.16A16.53 16.53 0 0 0 1.23 5z"/></g><path class="cls-3" d="M9.16 8.2a3.22 3.22 0 0 1 0-6.43 3.25 3.25 0 0 1 2.12.8.53.53 0 0 1 .05.73.52.52 0 0 1-.74.05 2.14 2.14 0 0 0-1.43-.54A2.18 2.18 0 1 0 11.34 5a.52.52 0 1 1 1 0 3.21 3.21 0 0 1-3.18 3.2z"/><path class="cls-3" d="M9.16 6a1 1 0 0 1 0-2 1 1 0 1 1 0 2z"/></g></g></svg>