<svg xmlns="http://www.w3.org/2000/svg" viewBox="0 0 47.13 47.13"><defs><style>.cls-1{fill:#0057ff}</style></defs><title>Asset 12</title><g id="Layer_2" data-name="Layer 2"><g id="Layer_1-2" data-name="Layer 1"><path class="cls-1" d="M29.85 29.93v-7.15a2.36 2.36 0 0 0-2.36-2.36H5.5a2.36 2.36 0 0 0-2.36 2.36v7.15A3.93 3.93 0 0 0 0 33.77v12.57a.79.79 0 0 0 .79.79h3.14a.78.78 0 0 0 .78-.79V44h23.57v2.35a.78.78 0 0 0 .78.79h3.14a.79.79 0 0 0 .79-.79V33.77a3.93 3.93 0 0 0-3.14-3.84zM4.71 22.78A.8.8 0 0 1 5.5 22h22a.8.8 0 0 1 .79.79v7.07h-1.58v-3.15a2.36 2.36 0 0 0-2.36-2.36h-4.71a2.36 2.36 0 0 0-2.36 2.36v3.14h-1.57v-3.14a2.36 2.36 0 0 0-2.36-2.36H8.64a2.36 2.36 0 0 0-2.36 2.36v3.14H4.71zm20.42 3.93v3.14h-6.28v-3.14a.79.79 0 0 1 .79-.79h4.71a.78.78 0 0 1 .78.79zm-11 0v3.14H7.85v-3.14a.79.79 0 0 1 .79-.79h4.71a.79.79 0 0 1 .79.79zm17.29 18.85h-1.57V43.2a.79.79 0 0 0-.79-.79H3.93a.79.79 0 0 0-.79.79v2.36H1.57v-6.29h29.85zm0-7.86H1.57v-3.93a2.36 2.36 0 0 1 2.36-2.35h25.13a2.36 2.36 0 0 1 2.36 2.35zm15.45-7.85H34.81a.25.25 0 0 0-.25.25v11.58a.74.74 0 0 0 .74.73h.09a.74.74 0 0 0 .74-.73V38a.25.25 0 0 1 .25-.25h8.92a.26.26 0 0 1 .26.25v3.73a.73.73 0 0 0 .73.73h.1a.74.74 0 0 0 .74-.73V30.1a.26.26 0 0 0-.26-.25zm-1.31 6a.26.26 0 0 1-.26.25h-8.92a.25.25 0 0 1-.25-.25v-4.18a.25.25 0 0 1 .25-.25h8.92a.26.26 0 0 1 .26.25z"/><rect class="cls-1" x="39.27" y="32.99" width="3.14" height="1.57" rx=".74" ry=".74"/><path class="cls-1" d="M44 24.35a.77.77 0 0 0 .63-.33.78.78 0 0 0 .11-.71l-1.58-4.71a.78.78 0 0 0-.74-.53h-3.15a.77.77 0 0 0-.74.53L37 23.32a.78.78 0 0 0 .74 1h2.36v2.36h-.84a.73.73 0 0 0-.73.73v.1a.74.74 0 0 0 .73.74h3.24a.74.74 0 0 0 .74-.74v-.1a.73.73 0 0 0-.74-.73h-.83v-2.33zm-5.2-1.57l1.05-3.14h2l1 3.14z"/><path class="cls-1" d="M46.66 10.28L23.88.07a.79.79 0 0 0-.64 0L.46 10.28A.79.79 0 0 0 0 11v8.69a.74.74 0 0 0 .74.73h.09a.74.74 0 0 0 .74-.73V12a.73.73 0 0 1 .43-.69l21.26-9.53a.78.78 0 0 1 .6 0l21.26 9.53a.73.73 0 0 1 .44.67v7.71a.73.73 0 0 0 .73.73h.1a.74.74 0 0 0 .74-.73V11a.79.79 0 0 0-.47-.72z"/><path class="cls-1" d="M18.07 11.78A5.5 5.5 0 1 0 29 10.87l-1.55.26a4.62 4.62 0 0 1 0 .65 3.93 3.93 0 1 1-3.93-3.93 3.88 3.88 0 0 1 1.31.23l.57-1.48a5.48 5.48 0 0 0-7.33 5.18z"/><path class="cls-1" d="M23.06 11a.72.72 0 0 0-1 0l-.1.09a.72.72 0 0 0 0 1L23 13.12a.74.74 0 0 0 .55.23.76.76 0 0 0 .56-.23l5-5a.71.71 0 0 0 0-1L29 7a.71.71 0 0 0-1 0l-3.93 4a.71.71 0 0 1-1.01 0z"/></g></g></svg>