<svg xmlns="http://www.w3.org/2000/svg" viewBox="0 0 47.13 46.26"><defs><style>.cls-1{fill:#0057ff}</style></defs><title>Asset 17</title><g id="Layer_2" data-name="Layer 2"><g id="Layer_1-2" data-name="Layer 1"><path class="cls-1" d="M11 43.13H4.7V8.08a1.89 1.89 0 0 1 1.81-1.81H9.1A1.9 1.9 0 0 1 11 8.08zm-4.73-1.57h3.14V8.08a.36.36 0 0 0-.24-.24H6.51a.36.36 0 0 0-.24.24zm32.15 4.7a.64.64 0 0 1-.31-.07l-.31-.08a11.41 11.41 0 0 1-3.06-1.57 13.53 13.53 0 0 1-4.94-10.82v-7.06a.83.83 0 0 1 .7-.78 16.38 16.38 0 0 0 7.53-3 .83.83 0 0 1 .86 0 16.11 16.11 0 0 0 7.53 3 .84.84 0 0 1 .71.78v7.06a13.38 13.38 0 0 1-5 10.82 10.35 10.35 0 0 1-3.06 1.57l-.31.08a.68.68 0 0 1-.34.07zm-7-18.89v6.35a11.81 11.81 0 0 0 4.39 9.56 9.23 9.23 0 0 0 2.66 1.34 10.44 10.44 0 0 0 2.67-1.34 11.84 11.84 0 0 0 4.39-9.56v-6.35a17.38 17.38 0 0 1-7.06-2.9 18.52 18.52 0 0 1-7.1 2.9z"/><path class="cls-1" d="M34.5 36.85a.73.73 0 0 1-.78-.78v-5.49a.75.75 0 0 1 .47-.7l3.14-1.57a.81.81 0 0 1 1 .31.83.83 0 0 1-.31 1l-2.74 1.41v5a.74.74 0 0 1-.78.82z"/><path class="cls-1" d="M35.37 43.13H3.84A3.85 3.85 0 0 1 0 39.29v-26a3.85 3.85 0 0 1 3.84-3.88h39.44a3.85 3.85 0 0 1 3.85 3.84V27.6l-.94-.16a18.74 18.74 0 0 1-7.77-3 18.52 18.52 0 0 1-7 2.9v6.35a12 12 0 0 0 2.9 8.07zM3.84 11a2.27 2.27 0 0 0-2.27 2.27v26.09a2.26 2.26 0 0 0 2.27 2.2h28.23a14 14 0 0 1-2.27-7.84V26l.7-.08a16.38 16.38 0 0 0 7.53-3l.47-.32.47.32a17.94 17.94 0 0 0 6.59 2.9V13.25A2.28 2.28 0 0 0 43.28 11z"/><path class="cls-1" d="M19.6 11h-6.27a.78.78 0 0 1-.78-.79V7.06a.78.78 0 0 1 .78-.79h6.27a.79.79 0 0 1 .79.79v3.13a.79.79 0 0 1-.79.81zm-4.7-1.59H18a.78.78 0 0 0 .78-.78.78.78 0 0 0-.78-.79h-3.1a.79.79 0 0 0-.79.79.79.79 0 0 0 .79.78zM33.72 11h-6.27a.79.79 0 0 1-.79-.79V7.06a.79.79 0 0 1 .79-.79h6.27a.78.78 0 0 1 .78.79v3.13a.78.78 0 0 1-.78.81zM29 9.41h3.14a.78.78 0 0 0 .78-.78.78.78 0 0 0-.78-.79H29a.78.78 0 0 0-.78.79.78.78 0 0 0 .78.78z"/><path class="cls-1" d="M32.93 7.84h-4.7V5a.56.56 0 0 0-.16-.32c-.08 0-.23-.15-.39-.07a10.56 10.56 0 0 1-8.15 0c-.24-.08-.4 0-.4.07s-.31.16-.31.32v2.84h-4.71V5.41A5.43 5.43 0 0 1 19.53 0h8a5.42 5.42 0 0 1 5.41 5.41zM29.8 6.27h1.57v-.86a3.85 3.85 0 0 0-3.85-3.84h-8a3.85 3.85 0 0 0-3.85 3.84v.86h1.57V5a1.85 1.85 0 0 1 .86-1.65 1.83 1.83 0 0 1 1.9-.14 8.88 8.88 0 0 0 7 0 2.3 2.3 0 0 1 1.89.16A2 2 0 0 1 29.8 5zm12.54 20.31l-1.09-.47a23.15 23.15 0 0 1-2.83-1.57l-1.17.71-1.18.63V8.08a1.88 1.88 0 0 1 1.8-1.81h2.59a1.9 1.9 0 0 1 1.88 1.81zm-3.92-4l.47.32a19.53 19.53 0 0 0 1.89 1.17v-16a.36.36 0 0 0-.24-.24H38a.35.35 0 0 0-.31.24v15c.08-.07.23-.15.31-.23zM24.31 32.93a7.06 7.06 0 1 1 7.06-7 7 7 0 0 1-7.06 7zm0-12.54a5.49 5.49 0 1 0 5.49 5.49 5.45 5.45 0 0 0-5.49-5.49z"/><path class="cls-1" d="M24.31 29a3.14 3.14 0 1 1 3.14-3.13A3.14 3.14 0 0 1 24.31 29zm0-4.7a1.57 1.57 0 1 0 1.57 1.57 1.57 1.57 0 0 0-1.57-1.56zm-.66 11.77H14a.65.65 0 0 1-.65-.65v-8.11a.65.65 0 0 1 .65-.65h4.33a.65.65 0 0 1 .63.5v.13a5.53 5.53 0 0 0 4.57 4.07h.1a.65.65 0 0 1 .66.65v3.4a.65.65 0 0 1-.64.66zm-8.1-1.57h6.54a.65.65 0 0 0 .65-.65v-.57a.67.67 0 0 0-.46-.63 7.11 7.11 0 0 1-4.49-4 .65.65 0 0 0-.6-.39h-1.64a.65.65 0 0 0-.65.65v5a.65.65 0 0 0 .65.59zm16.94-10.19h-2.66a.46.46 0 0 1-.39-.24l-.11-.22a5.29 5.29 0 0 0-6.42-3.2l-.4.1a.43.43 0 0 1-.51-.45v-5a.44.44 0 0 1 .44-.44h10.05a.44.44 0 0 1 .44.44v8.53a.44.44 0 0 1-.44.48zm-1.56-1.57a.44.44 0 0 0 .44-.44v-5.39a.44.44 0 0 0-.44-.44H24a.44.44 0 0 0-.44.44v1.5a.44.44 0 0 0 .47.44 6.88 6.88 0 0 1 6.55 3.66.45.45 0 0 0 .35.23z"/></g></g></svg>