<svg xmlns="http://www.w3.org/2000/svg" viewBox="0 0 125.25 125"><defs><style>.cls-1{fill:#ededed;}</style></defs><title>Asset 1</title><g id="Layer_2" data-name="Layer 2"><g id="Layer_1-2" data-name="Layer 1"><path class="cls-1" d="M69.8,78.52S68.61,23,24.51,4.89c0,0,44.32,44.44,34.3,93.11,0,0,58.09-3.7,66.44-69.66C125.25,28.34,110.9,72.31,69.8,78.52Z"/><path class="cls-1" d="M93.17,29.45a50.28,50.28,0,0,1,6.4,7.25,65.28,65.28,0,0,0,6.81-5A59.07,59.07,0,0,0,67.9,8.14a75.84,75.84,0,0,1,9.69,11.35A50.52,50.52,0,0,1,93.17,29.45Z"/><path class="cls-1" d="M106.06,84.7C99.2,90.91,88.79,97.79,73.77,102c0,0,9.44,1.58,24.27-4.19-.79,1-1.62,1.9-2.49,2.84A50.35,50.35,0,1,1,31.09,24.16c-1.83-2.55-3.57-4.8-5.13-6.73a59.45,59.45,0,0,0-10.11,8.64,58.78,58.78,0,1,0,85.85,80.3,58.26,58.26,0,0,0,15.67-35.43l-.12.17A83.26,83.26,0,0,1,106.06,84.7Z"/><path class="cls-1" d="M76.59,68S104.75,60.87,116.45,32c0,0-12.52,14.41-32,18.76,0,0-9.9-41.63-44.92-50.79C39.5,0,74,20.82,76.59,68Z"/></g></g></svg>