<svg xmlns="http://www.w3.org/2000/svg" viewBox="0 0 50.41 50.13"><defs><style>.cls-1{opacity:0.8;}.cls-2{fill:#fff;}</style></defs><title>Asset 15</title><g id="Layer_2" data-name="Layer 2"><g id="Layer_1-2" data-name="Layer 1"><g class="cls-1"><polygon class="cls-2" points="21.93 8.75 20.18 8.75 20.18 19.54 9.38 19.54 9.38 21.29 20.18 21.29 20.18 32.08 21.93 32.08 21.93 21.29 32.72 21.29 32.72 19.54 21.93 19.54 21.93 8.75"/><path class="cls-2" d="M50.41,48.32,36.85,34.77a23.16,23.16,0,0,0,3.64-5.69A21.32,21.32,0,0,0,29.08,1.51,21.16,21.16,0,0,0,1.51,29.08,21.26,21.26,0,0,0,21,42a20.86,20.86,0,0,0,14.06-5.41L48.6,50.13ZM13.59,38.9A19.56,19.56,0,0,1,3.11,13.58,19.52,19.52,0,0,1,21,1.72,19.15,19.15,0,0,1,34.63,7.37a19.51,19.51,0,0,1,4.26,21.06A19.58,19.58,0,0,1,13.59,38.9Z"/></g></g></g></svg>