<svg xmlns="http://www.w3.org/2000/svg" viewBox="0 0 50.41 50.13"><defs><style>.cls-1{opacity:.8}.cls-2{fill:#fff}</style></defs><title>Asset 15</title><g id="Layer_2" data-name="Layer 2"><g class="cls-1" id="Layer_1-2" data-name="Layer 1"><path class="cls-2" d="M21.93 8.75h-1.75v10.79H9.38v1.75h10.8v10.79h1.75V21.29h10.79v-1.75H21.93V8.75z"/><path class="cls-2" d="M50.41 48.32L36.85 34.77a23.16 23.16 0 0 0 3.64-5.69A21.32 21.32 0 0 0 29.08 1.51 21.16 21.16 0 0 0 1.51 29.08 21.26 21.26 0 0 0 21 42a20.86 20.86 0 0 0 14.06-5.41L48.6 50.13zM13.59 38.9A19.56 19.56 0 0 1 3.11 13.58 19.52 19.52 0 0 1 21 1.72a19.15 19.15 0 0 1 13.63 5.65 19.51 19.51 0 0 1 4.26 21.06 19.58 19.58 0 0 1-25.3 10.47z"/></g></g></svg>