<svg xmlns="http://www.w3.org/2000/svg" viewBox="0 0 42.33 30.58"><defs><style>.cls-1,.cls-2{fill:#0057ff;stroke-miterlimit:10;}.cls-1{stroke:#fff;stroke-width:0.4px;}.cls-2{stroke:#0057ff;stroke-width:0.25px;}</style></defs><title>Asset 4</title><g id="Layer_2" data-name="Layer 2"><g id="Layer_1-2" data-name="Layer 1"><path class="cls-1" d="M27.24,1.61a1.91,1.91,0,0,0-3.68,0L19.27,17.66a5,5,0,0,0-1.06-.45A9.51,9.51,0,0,0,19,13.52,9.38,9.38,0,1,0,8.85,22.87v6H6.42a.74.74,0,1,0,0,1.47h17V28.91H17.59v-2.5a4.73,4.73,0,0,0,3.69-2.84h2c-.23-.48-.51-.94-.78-1.39l0-.08h-.87c0-.12,0-.23,0-.35a4.72,4.72,0,0,0-1.13-3.06l.24-.89c-.34-.53-.92-1.05-.65-1.74a3.49,3.49,0,0,1,1.41-1.36s0,0,.08,0L25,2a.44.44,0,0,1,.84,0l2.6,9.71a.34.34,0,0,1,.14.08l1.91,1.92ZM9.58,10.91a.73.73,0,0,0-.73.73v5.49L7.08,15.36a.74.74,0,0,0-1,1l2.81,2.81V21.4a7.89,7.89,0,1,1,7.82-4.35A4.71,4.71,0,0,0,12.29,21a7.91,7.91,0,0,1-2,.44V16.08l2-2a.75.75,0,0,0,0-1,.73.73,0,0,0-1,0l-1,1V11.64A.74.74,0,0,0,9.58,10.91Zm6.69,18H10.32v-6h0a9.28,9.28,0,0,0,2-.36,4.71,4.71,0,0,0,4,3.9Zm3.9-7.16a3.24,3.24,0,0,1-2.58,3.17V23.58h0V20.82a.66.66,0,0,0-1.32,0V22L16,21.73a.66.66,0,0,0-.94,0,.65.65,0,0,0,0,.93l1.2,1.2v1.06a3.24,3.24,0,0,1,.66-6.41h.17A3.25,3.25,0,0,1,20.17,21.75Z"/><path class="cls-2" d="M26.82,15.35h0a.4.4,0,0,0,.23-.08,2.06,2.06,0,0,0,.71-1.22.81.81,0,0,0-.27-.65,1.11,1.11,0,0,0-1.27-.19,1.82,1.82,0,0,0-.58.34.35.35,0,0,0-.05.49l.95,1.18A.34.34,0,0,0,26.82,15.35Zm-.4-1.44c.2-.1.45-.17.61,0a.13.13,0,0,1,0,.13.78.78,0,0,1-.21.43Z"/><path class="cls-2" d="M23.74,15.76a.41.41,0,1,0,0-.81.41.41,0,1,0,0,.81Z"/><path class="cls-2" d="M41.35,24.43c-.05-.17-.12-.33-.18-.5a5.87,5.87,0,0,1-.45-1.78A4.89,4.89,0,0,0,38.5,18.3a6.49,6.49,0,0,0-2-.91,5.24,5.24,0,0,0-2.56-.12A7.2,7.2,0,0,1,30.39,17a4.35,4.35,0,0,0-.91-1.82.33.33,0,0,0,.27-.12.34.34,0,0,0,.08-.29,3.54,3.54,0,0,0-.51-1.26A3.45,3.45,0,0,0,26.86,12a4.38,4.38,0,0,0-3.53.71,2.71,2.71,0,0,0-.9,2c-.36.36-.77.78-1.1,1.16v0a7.73,7.73,0,0,0-.48.61.38.38,0,0,0,0,.36,5.73,5.73,0,0,0,.47.73l0,0a3.33,3.33,0,0,0,1,.93h0l0,0h0l.81.23c-.05.16-.11.37-.16.61a.35.35,0,0,0,.27.42h.08a.35.35,0,0,0,.34-.29,4.26,4.26,0,0,1,.26-.83.35.35,0,0,0,0-.3.39.39,0,0,0-.23-.19L23.17,18a6.3,6.3,0,0,1,1.71-1,1.26,1.26,0,0,0,.83-1,2.35,2.35,0,0,0-.91-2,1.3,1.3,0,0,0-1.31-.25l-.1.07-.05,0a1.79,1.79,0,0,1,.46-.6,3.68,3.68,0,0,1,2.95-.55A2.76,2.76,0,0,1,29,14.49h-.43a.33.33,0,0,0-.33.24.35.35,0,0,0,.12.39,3.61,3.61,0,0,1,1.43,2.77,5.45,5.45,0,0,1,0,1,3.26,3.26,0,0,0-.47-.29.33.33,0,0,0-.39,0,.36.36,0,0,0-.1.39,1.58,1.58,0,0,1,0,1,.35.35,0,0,0,.25.43l.09,0a.36.36,0,0,0,.34-.26,3.76,3.76,0,0,0,.1-.53.83.83,0,0,1,.12.16.34.34,0,0,0,.35.18.35.35,0,0,0,.3-.25,6.05,6.05,0,0,0,.15-1.89.17.17,0,0,0,0-.07A7.94,7.94,0,0,0,34,18a4.69,4.69,0,0,1,2.26.09h0a2.75,2.75,0,0,1,.41.17c2.14,1,1.69,4,1.5,4.85a3.18,3.18,0,0,0-.07.75.35.35,0,0,0,.35.34h0a.36.36,0,0,0,.35-.36,2.35,2.35,0,0,1,0-.59A7.77,7.77,0,0,0,39,20.47a4.29,4.29,0,0,0-.32-1.12A4.08,4.08,0,0,1,40,22.2a6.3,6.3,0,0,0,.49,2c.05.13.1.26.14.39a1,1,0,0,0-.48.86,4.69,4.69,0,0,0,.26,1.19c.25.72.51,1,.85,1s.65-.58.77-1.08a7,7,0,0,0,.15-1.15A1,1,0,0,0,41.35,24.43ZM23.81,14.34a.69.69,0,0,1,.56.17A1.68,1.68,0,0,1,25,15.87a.58.58,0,0,1-.39.47,6.48,6.48,0,0,0-2.18,1.4,2.94,2.94,0,0,1-.4-.39,1.14,1.14,0,0,0,.2-.8,1,1,0,0,0-.18-.47C22.72,15.36,23.59,14.54,23.81,14.34ZM41.26,26.78a4.73,4.73,0,0,1-.38-1.35.31.31,0,0,1,.31-.31.3.3,0,0,1,.3.31A5.08,5.08,0,0,1,41.26,26.78Z"/><path class="cls-2" d="M39.05,25v0a.36.36,0,0,0-.43-.26.36.36,0,0,0-.26.43v0a13.57,13.57,0,0,1,.32,1.56,4.32,4.32,0,0,1-1.09,2.95H35.87a2.64,2.64,0,0,1,1.05-.76,1.73,1.73,0,0,0,.84-.62c.19-.37.46-1.36-.92-2.67a6.25,6.25,0,0,1-1.37-2.54.39.39,0,0,0-.28-.26.37.37,0,0,0-.35.14l0,0a3.28,3.28,0,0,1-1.5.74h0l0,0a23.87,23.87,0,0,1-3.44.66h-.1l-1.07.12.1-.74a.35.35,0,1,0-.7-.1l-.83,6h-1.9a1.75,1.75,0,0,1,1-.69.35.35,0,0,0,.27-.35l-.06-4.47a6,6,0,0,0,.89-1.67.27.27,0,0,1,0,.12.38.38,0,0,0,.25.31.36.36,0,0,0,.38-.12,9.49,9.49,0,0,0,1.05-1.61.35.35,0,0,0-.15-.47.36.36,0,0,0-.48.15,7.8,7.8,0,0,1-.64,1.05,1.57,1.57,0,0,0-.6-.38.33.33,0,0,0-.33.06.31.31,0,0,0-.13.31A3.57,3.57,0,0,1,26,23.59a3.78,3.78,0,0,1-1.61-2,.36.36,0,0,0-.27-.25.34.34,0,0,0-.34.13l-.08.09a4.87,4.87,0,0,1-.1-1,.36.36,0,0,0-.36-.35h0a.35.35,0,0,0-.35.35,5.76,5.76,0,0,0,.32,1.88.37.37,0,0,0,.28.23.36.36,0,0,0,.33-.13l.13-.15a4.17,4.17,0,0,0,1.81,1.9l.05,4.12a2.62,2.62,0,0,0-.47.24,1.86,1.86,0,0,0-.9,1.34.32.32,0,0,0,.08.28.36.36,0,0,0,.27.12H29a.35.35,0,0,0,.35-.27l.81-3.57a.19.19,0,0,0,0-.08V25.08l1.25-.2c.41-.07.8-.14,1.15-.23a2.24,2.24,0,0,0,.54,2.09,6.69,6.69,0,0,1,.73.69l-.73,1c-.39.15-1.67.69-2,1.5a.33.33,0,0,0,0,.32.34.34,0,0,0,.29.15h2.31a.37.37,0,0,0,.28-.13l2.12-2.62a.22.22,0,0,0,.05-.08l.47-1c.45.56.61,1.09.42,1.47a2.3,2.3,0,0,1-.53.31c-.6.3-1.51.76-1.55,1.72a.35.35,0,0,0,.1.26.36.36,0,0,0,.26.11h2.34a.36.36,0,0,0,.26-.11,6.43,6.43,0,0,0,.77-1.09,4.15,4.15,0,0,0,.6-2.55A15.34,15.34,0,0,0,39.05,25ZM29.46,26.4l-.74,3.26h-.78l.61-4.4.91-.1V26.4Zm6.16.8-2,2.46h-1.4a3.36,3.36,0,0,1,.44-.29,5,5,0,0,1,.78-.35.38.38,0,0,0,.16-.12l1-1.26a.35.35,0,0,0,0-.37,4.08,4.08,0,0,0-1-1.07c-.45-.37-.35-1.26-.23-1.74a7.67,7.67,0,0,0,1.13-.4h0l.08,0,0,0,0,0,.05,0h0l0,0h0l.19-.11h0a.3.3,0,0,0,0,.1V24L35,24l0,.06,0,.07,0,.06,0,.08,0,.06,0,.08,0,.06,0,.08,0,.07a.2.2,0,0,0,0,.08l0,.07,0,.09,0,.06.06.09,0,.06.06.1,0,0a.71.71,0,0,0,.1.14h0l.11.15,0,.05.08.09,0,.06.07.09s0,0,.05.05l0,.06Z"/></g></g></svg>