<svg xmlns="http://www.w3.org/2000/svg" viewBox="0 0 36 31.76"><defs><style>.cls-1{fill:#0057ff}</style></defs><title>Asset 1</title><g id="Layer_2" data-name="Layer 2"><g id="Layer_1-2" data-name="Layer 1"><path class="cls-1" d="M13.93 25.25H5.7a.81.81 0 0 0-.81.81.82.82 0 0 0 .81.82h8.23a.82.82 0 0 0 .81-.82.81.81 0 0 0-.81-.81zm12.3 0H18a.81.81 0 0 0-.81.81.82.82 0 0 0 .81.82h8.23a.82.82 0 0 0 .81-.82.81.81 0 0 0-.81-.81zm0-20.36H5.7a.81.81 0 0 0-.81.81.82.82 0 0 0 .81.82h20.53A.82.82 0 0 0 27 5.7a.81.81 0 0 0-.81-.81zm0 4.11H18a.81.81 0 0 0-.81.81.82.82 0 0 0 .81.82h8.23a.82.82 0 0 0 .77-.86.81.81 0 0 0-.77-.77zm0 4H18a.82.82 0 0 0-.81.82.81.81 0 0 0 .81.81h8.23a.81.81 0 0 0 .81-.81.82.82 0 0 0-.81-.82zm0 4.1H18a.82.82 0 0 0-.81.82.81.81 0 0 0 .81.81h8.23a.81.81 0 0 0 .81-.81.82.82 0 0 0-.81-.82zm0 4.08H18a.81.81 0 0 0-.81.81.82.82 0 0 0 .81.82h8.23A.82.82 0 0 0 27 22a.81.81 0 0 0-.81-.81zm-12.3 0H5.7a.81.81 0 0 0-.81.81.82.82 0 0 0 .81.82h8.23a.82.82 0 0 0 .81-.82.81.81 0 0 0-.81-.81zm0-12.18H5.7a.81.81 0 0 0-.81.81V18a.81.81 0 0 0 .81.81h8.23a.81.81 0 0 0 .81-.81V9.77a.81.81 0 0 0-.81-.77zm-.82 8.23H6.52v-6.6h6.59z"/><path class="cls-1" d="M34.37 4.07h-2.44V1.63A1.63 1.63 0 0 0 30.3 0H1.63A1.63 1.63 0 0 0 0 1.63v26.06a4.07 4.07 0 0 0 4.07 4.07h27.86A4.07 4.07 0 0 0 36 27.69V5.7a1.63 1.63 0 0 0-1.63-1.63zm0 23.62a2.45 2.45 0 0 1-2.44 2.45H4.07a2.45 2.45 0 0 1-2.44-2.45V1.63H30.3v24.84a2 2 0 0 0 2 2 .82.82 0 0 0 .82-.82.82.82 0 0 0-.82-.81.4.4 0 0 1-.4-.41V5.7h2.44z"/></g></g></svg>