<svg xmlns="http://www.w3.org/2000/svg" viewBox="0 0 15.87 18.05"><defs><style>.cls-1{fill:none}.cls-2{clip-path:url(#clip-path)}.cls-3{fill:#0057ff}</style><clipPath id="clip-path"><path class="cls-1" d="M0 0h16v18.05H0z"/></clipPath></defs><title>Asset 2</title><g id="Layer_2" data-name="Layer 2"><g id="Layer_1-2" data-name="Layer 1"><g class="cls-2"><path class="cls-3" d="M12 9.54a7.2 7.2 0 0 0-1.25-7.7 6.31 6.31 0 0 0-8.91 0 7.18 7.18 0 0 0-.59 8.85l5 7.28 1.54-2.21A4.26 4.26 0 1 0 12 9.54zm-5.71 7.28l-4.51-6.51a6.48 6.48 0 0 1 .53-8 5.64 5.64 0 0 1 8 0 6.6 6.6 0 0 1 1 7.23h-.42l-.3.07h-.13l-.21.07-.25.15-.13.06-.28.11a4.27 4.27 0 0 0-2.13 2.87v.37a3.24 3.24 0 0 0 0 .44 2.3 2.3 0 0 0 0 .37v.56c0 .07 0 0 0 0a2.68 2.68 0 0 0 .07.27zm5.31.57A3.6 3.6 0 0 1 8.2 15a2.58 2.58 0 0 1-.08-.26v-.92a3.59 3.59 0 0 1 1.89-3.17l.25-.12.15-.06.15-.05.26-.07h.06l.33-.06a2.19 2.19 0 0 1 .36 0h.14a3.61 3.61 0 0 1 0 7.21z"/></g><path class="cls-3" d="M11.93 11.82a.33.33 0 1 0-.65 0v1.64H9.63a.33.33 0 0 0 0 .65h1.65v1.64a.33.33 0 1 0 .65 0v-1.64h1.64a.33.33 0 1 0 0-.65h-1.64v-1.64M8.65 6.24a2.3 2.3 0 1 0-2.3 2.29 2.3 2.3 0 0 0 2.3-2.29zm-2.3 1.64A1.65 1.65 0 1 1 8 6.24a1.65 1.65 0 0 1-1.65 1.64z"/></g></g></svg>