<svg xmlns="http://www.w3.org/2000/svg" viewBox="0 0 32 32.39"><defs><style>.cls-1{fill:#0057ff}</style></defs><title>Asset 2</title><g id="Layer_2" data-name="Layer 2"><g id="Layer_1-2" data-name="Layer 1"><path class="cls-1" d="M19 6.38a13 13 0 0 0 0 26 12.88 12.88 0 0 0 8.08-2.82.5.5 0 0 0-.61-.78 11.87 11.87 0 0 1-2.14 1.36 10.84 10.84 0 0 0 1.43-1.63 13.19 13.19 0 0 0 1.61-3c.53.2 1 .41 1.54.63a11.16 11.16 0 0 1-1.05 1.33.5.5 0 0 0 0 .7.49.49 0 0 0 .7 0A13 13 0 0 0 19 6.38zm-2.28 1.43a10.08 10.08 0 0 0-1.27 2.57 23 23 0 0 0-.93 3.9 24 24 0 0 1-2.95-.72 9.78 9.78 0 0 1 5.15-5.75zm-2.33 7.46a32.24 32.24 0 0 0-.23 3.62h-3.65a15.89 15.89 0 0 1 .73-4.4 25 25 0 0 0 3.15.78zm-.74-6.63a10.49 10.49 0 0 0-1.41 1.61 13.19 13.19 0 0 0-1.61 3c-.53-.19-1-.4-1.54-.63a12 12 0 0 1 4.56-3.98zm-5.09 4.82c.56.26 1.14.5 1.74.71a17.34 17.34 0 0 0-.79 4.72H7a11.9 11.9 0 0 1 1.56-5.43zM7 19.88h2.51a17.34 17.34 0 0 0 .79 4.72c-.6.22-1.18.45-1.74.72A12 12 0 0 1 7 19.88zm2.09 6.28c.5-.23 1-.43 1.54-.63a13.19 13.19 0 0 0 1.61 3 10.49 10.49 0 0 0 1.41 1.61 12 12 0 0 1-4.56-3.98zm2.48-.95a24.11 24.11 0 0 1 3-.72 19.89 19.89 0 0 0 1.34 5 8.08 8.08 0 0 0 .85 1.5 9.79 9.79 0 0 1-5.19-5.78zm6.93 6.07a4.35 4.35 0 0 1-1.72-2.23 19.37 19.37 0 0 1-1.28-4.72 27.16 27.16 0 0 1 3-.23zm0-8.17a27.13 27.13 0 0 0-3.13.24c0-.26-.06-.52-.08-.79a.5.5 0 1 0-1 .09l.09.85a26.84 26.84 0 0 0-3.15.78 15.89 15.89 0 0 1-.73-4.4h3.65v.76a.5.5 0 0 0 .52.48.49.49 0 0 0 .47-.52v-.72h3.36zm0-4.22h-3.35a31.17 31.17 0 0 1 .22-3.47 27.13 27.13 0 0 0 3.13.24zm0-4.22a27.16 27.16 0 0 1-3-.23c.59-3.8 1.8-6.38 3-6.95zM31 18.89h-2.52a17 17 0 0 0-.78-4.72c.59-.21 1.17-.45 1.74-.71A11.9 11.9 0 0 1 31 18.89zm-2.09-6.28c-.5.23-1 .44-1.54.63a13.19 13.19 0 0 0-1.61-3 11.06 11.06 0 0 0-1.41-1.61 12 12 0 0 1 4.56 3.98zm-2.48 1a24.11 24.11 0 0 1-3 .72 22.11 22.11 0 0 0-.93-3.9 9.46 9.46 0 0 0-1.27-2.57 9.82 9.82 0 0 1 5.2 5.7zm-6.94-6.12c1.21.57 2.42 3.15 3 7a26.79 26.79 0 0 1-3 .23zm0 8.17a27.13 27.13 0 0 0 3.14-.24 33.78 33.78 0 0 1 .22 3.47h-3.36v-3.23zm0 4.22h3.36a33.78 33.78 0 0 1-.22 3.47 27.13 27.13 0 0 0-3.14-.24v-3.23zm0 11.4V24.1a26.79 26.79 0 0 1 3 .23c-.58 3.8-1.79 6.38-3 6.95zm1.78-.28a9.46 9.46 0 0 0 1.27-2.57 22.11 22.11 0 0 0 .93-3.9 24.11 24.11 0 0 1 3 .72 9.82 9.82 0 0 1-5.2 5.75zm5.64-11.08h.58a15.89 15.89 0 0 1-.73 4.4 26.84 26.84 0 0 0-3.15-.78 34.79 34.79 0 0 0 .23-3.62h.95a.5.5 0 1 0 0-1h-.95a34.79 34.79 0 0 0-.23-3.62 25 25 0 0 0 3.15-.78 15.89 15.89 0 0 1 .73 4.4h-.58a.5.5 0 1 0 0 1zm.79 4.72a17 17 0 0 0 .78-4.72H31a12 12 0 0 1-1.56 5.44q-.84-.43-1.74-.76z"/><path class="cls-1" d="M6.49 10.07l2-2.85h1a.5.5 0 1 0 0-1H9.2L9.4 6a.6.6 0 0 0-.49-1H5a.7.7 0 0 0-.69.7v.53H1.93a.93.93 0 1 1 0-1.86h8.57a.93.93 0 0 1 .85.54.51.51 0 0 0 .45.29h.61a.52.52 0 1 1 0 1h-1a.5.5 0 1 0 0 1h1a1.51 1.51 0 1 0 0-3h-.32a2 2 0 0 0-1.59-.83H8.61l-2.12-3A.92.92 0 0 0 5.77 0H5a.69.69 0 0 0-.7.69v2.69h-.59l-.42-1.64a.77.77 0 0 0-.73-.56H1.47a.7.7 0 0 0-.7.7v1.88a1.92 1.92 0 0 0 1.16 3.46H4.3v2.53a.69.69 0 0 0 .69.69h.78a.92.92 0 0 0 .72-.37zM5.29 1h.42L7.4 3.38H5.29zM1.77 2.17h.61l.31 1.21h-.92zm3.94 7.28h-.42V6h2.86z"/></g></g></svg>