<svg xmlns="http://www.w3.org/2000/svg" viewBox="0 0 48.5 47.71"><defs><style>.cls-1{fill:#0057ff;stroke:#0057ff;stroke-miterlimit:10;stroke-width:.5px}</style></defs><title>Asset 4</title><g id="Layer_2" data-name="Layer 2"><g id="Layer_1-2" data-name="Layer 1"><path class="cls-1" d="M15.45 19.46h8.8a.8.8 0 0 0 0-1.6h-8.8a.8.8 0 1 0 0 1.6zm12.8 4h-16.8a.8.8 0 0 0 0 1.6h16.8a.8.8 0 0 0 0-1.6zm0 5.6h-16.8a.8.8 0 1 0 0 1.6h16.8a.8.8 0 0 0 0-1.6z"/><path class="cls-1" d="M36.43.25H20.87A11.81 11.81 0 0 0 9.62 8.51 11.83 11.83 0 0 0 .25 20.07v9.08A12.12 12.12 0 0 0 11.45 41v5.19a1.21 1.21 0 0 0 .71 1.17 1.12 1.12 0 0 0 1.25-.29l1.22-1.21a16.58 16.58 0 0 1 11.85-4.83h1.15a11.84 11.84 0 0 0 11.27-8.3 12.11 12.11 0 0 0 9.35-11.59v-9.07A11.83 11.83 0 0 0 36.43.25zm-8.8 39.2h-1.15a18.24 18.24 0 0 0-13 5.29l-.44.45v-8.27a.8.8 0 0 0-1.6 0v2.49a10.5 10.5 0 0 1-9.6-10.27v-9.07a10.24 10.24 0 0 1 8.1-10l.42-.07c.29-.05.57-.08.85-.11s.44 0 .67 0h15.75a10.23 10.23 0 0 1 10.22 10.18v10.6c-.07.39-.14.79-.25 1.18l-.13.45a10.24 10.24 0 0 1-9.72 7.15zm19-18.31A10.47 10.47 0 0 1 39.3 31a1.1 1.1 0 0 0 0-.18c0-.21.06-.41.08-.62s.05-.68.05-1v-9.13a11.72 11.72 0 0 0-.24-2.38 11.85 11.85 0 0 0-11.56-9.44H11.37a10.25 10.25 0 0 1 9.48-6.42h15.58a10.23 10.23 0 0 1 10.22 10.24z"/></g></g></svg>