<svg xmlns="http://www.w3.org/2000/svg" viewBox="0 0 42.2 34.55"><defs><style>.cls-1,.cls-2,.cls-3{fill:#4d4d4d}.cls-1,.cls-3{stroke:#fff;stroke-width:.15px;stroke-miterlimit:10}.cls-3{stroke:#4d4d4d;stroke-width:.25px}</style></defs><title>Asset 5</title><g id="Layer_2" data-name="Layer 2"><g id="Layer_1-2" data-name="Layer 1"><path class="cls-1" d="M38.79 13.83a14.15 14.15 0 0 0-2.42-6.07 3.7 3.7 0 0 0 1.73-3.13V4.1h-5.45a14.05 14.05 0 0 0-4.58-2 3.74 3.74 0 0 0 .3-1.46V.08H21v.53a3.74 3.74 0 0 0 .3 1.46A14.17 14.17 0 0 0 17 3.91l-.29.19h-5.47v.53A3.69 3.69 0 0 0 13 7.76a14.14 14.14 0 0 0-2.11 4.56H12a13.12 13.12 0 0 1 2-4.12 3.59 3.59 0 0 0 1 .14 3.84 3.84 0 0 0 1.18-.19l6 6a3.17 3.17 0 0 0-.54 1.31h-3.51a5.94 5.94 0 0 1 .71 1.06h2.7a3.13 3.13 0 0 0 .54 1.3l-4.74 4.74c.17.33.35.64.52 1l5-5 .17.12-4.12 9.19-.53-.28q-.33.44-.63.87c.24.14.48.26.73.38l-.16.35a7.41 7.41 0 0 1 .82.77l.31-.69a14.24 14.24 0 0 0 1.95.61 3.7 3.7 0 0 0 6.57 0 14.24 14.24 0 0 0 1.95-.61l1.87 4.16H20c-.1.36-.19.71-.29 1.06h14.48V33.4h-1.25l-2-4.59A14.59 14.59 0 0 0 33 27.53a3.62 3.62 0 0 0 1.36.26 3.72 3.72 0 0 0 3.71-3.71v-.53h-1.31a14.3 14.3 0 0 0 2-5.51 3.71 3.71 0 0 0 3.33-3.68v-.53zm-1.07 0h-3v.53a3.72 3.72 0 0 0 .15 1.06H27.8a3.06 3.06 0 0 0-.55-1.31l6-6a3.77 3.77 0 0 0 1.17.19 3.66 3.66 0 0 0 1-.14 13.32 13.32 0 0 1 2.3 5.67zM37 5.16a2.64 2.64 0 0 1-5.18 0zm-6.29-1v.46a3.72 3.72 0 0 0 1.54 3l-5.75 5.74a3.13 3.13 0 0 0-1.3-.54V4.27A3.71 3.71 0 0 0 27.47 3a13 13 0 0 1 3.22 1.17zm-3.43-3a2.66 2.66 0 0 1-2.59 2.11 2.64 2.64 0 0 1-2.59-2.11zM14.94 7.28a2.65 2.65 0 0 1-2.59-2.12h5.18a2.65 2.65 0 0 1-2.59 2.12zm2.17.36a3.72 3.72 0 0 0 1.54-3v-.47A12.94 12.94 0 0 1 21.86 3a3.7 3.7 0 0 0 2.28 1.25v8.55a3.17 3.17 0 0 0-1.31.54zM22.55 16a2.12 2.12 0 1 1 2.12 2.11A2.12 2.12 0 0 1 22.55 16zM21 27.58v.53a4.91 4.91 0 0 0 0 .55c-.39-.12-.77-.25-1.15-.39L24 19.05h.15v8.5zm3.71 3.18a2.64 2.64 0 0 1-2.59-2.12h5.18a2.66 2.66 0 0 1-2.63 2.12zm3.66-2.1a3.31 3.31 0 0 0 0-.55v-.53H25.2v-8.5h.15l4.13 9.22c-.38.11-.76.24-1.15.36zm2.12-.82l-4.12-9.19.17-.12 5 5h-.83v.54A3.68 3.68 0 0 0 32 26.93a13.16 13.16 0 0 1-1.55.91zM37 24.62a2.64 2.64 0 0 1-5.18 0zm-1.5-1.07H33l-5.77-5.77a3 3 0 0 0 .55-1.3h7.58A3.7 3.7 0 0 0 37.73 18a13.1 13.1 0 0 1-2.25 5.55zM38.42 17a2.65 2.65 0 0 1-2.59-2.11H41A2.65 2.65 0 0 1 38.42 17z"/><path class="cls-2" d="M25.09 14.53a1.59 1.59 0 1 0 1.59 1.59 1.59 1.59 0 0 0-1.59-1.59zm0 2.11a.52.52 0 0 1-.52-.52.52.52 0 0 1 .52-.53.53.53 0 0 1 .53.53.52.52 0 0 1-.53.52z"/><path class="cls-3" d="M5.71 15.58H4.2a.31.31 0 1 1 0-.62h1.51a.31.31 0 1 1 0 .62zM18 24.1h-2.6a.32.32 0 0 0 0 .63H18a.32.32 0 0 0 0-.63zm-7.43 2.82a.31.31 0 0 0 0-.62H9.06a.31.31 0 1 0 0 .62zM3.55 28h8a.31.31 0 0 0 0-.62h-8a.31.31 0 1 0 0 .62z"/><path class="cls-3" d="M18.14 29.93a.31.31 0 0 0 0 .44 6 6 0 0 1 1.31 3.43H1.19A9.94 9.94 0 0 1 2.3 33a11.54 11.54 0 0 1 5.08-1.65 7.65 7.65 0 0 0 4.1-1.35 4.33 4.33 0 0 1 2.2-.86 9.62 9.62 0 0 1 1.61 0 4.49 4.49 0 0 1 1.81.5.31.31 0 0 0 .42-.13.31.31 0 0 0-.12-.51 5.24 5.24 0 0 0-2.06-.57h-.36a17.91 17.91 0 0 0-.25-2.56 15.57 15.57 0 0 0-.52-2.09h2.27a.31.31 0 0 0 0-.62H14q-.2-.5-.42-1l-.09-.15a1.4 1.4 0 0 0-.31-2.45 3.61 3.61 0 0 1 1-.74 3.51 3.51 0 0 1 4.71 1.55c.13.27.55.31.61 0a4.13 4.13 0 0 0-4.65-4.76 3.48 3.48 0 0 0-.64.14 3.58 3.58 0 0 0-.64.26 4.06 4.06 0 0 0-1.6 1.42 3.51 3.51 0 0 1 4.65-1.71h.05a.31.31 0 0 0 .36-.07.32.32 0 0 0 .05-.36 4.14 4.14 0 0 0-7.36.27 3.85 3.85 0 0 0-.31 1A4.13 4.13 0 0 0 3.81 22a.32.32 0 0 0 .6-.12 3.48 3.48 0 0 1 1.51-2.22 3.52 3.52 0 0 1 1.93-.58 4.18 4.18 0 0 0-1.13.38A4.13 4.13 0 0 0 4.89 25a4.09 4.09 0 0 0 1.81 1.82c.3.15.54-.2.39-.47A3.46 3.46 0 0 1 7 23.5a.33.33 0 0 0-.18-.41.31.31 0 0 0-.4.18 4.15 4.15 0 0 0-.18 2.46 3.78 3.78 0 0 1-.76-1A3.51 3.51 0 0 1 7 20a3.47 3.47 0 0 1 2.75-.18h.09l-.06.07a4.79 4.79 0 0 0-3.6 1.39.31.31 0 0 0 0 .44.34.34 0 0 0 .21.08.3.3 0 0 0 .23-.11 4.11 4.11 0 0 1 2.88-1.18v.15a4.09 4.09 0 0 0-1.15.38 4.14 4.14 0 0 0-1.24 1 .31.31 0 0 0 0 .44.29.29 0 0 0 .43 0 3.68 3.68 0 0 1 1.06-.82 3.37 3.37 0 0 1 1-.33 1.17 1.17 0 0 0 1.58.38A10.16 10.16 0 0 1 13 26.16a15.1 15.1 0 0 1 .24 2.37 5 5 0 0 0-2.19.92 7 7 0 0 1-3.73 1.25A12.08 12.08 0 0 0 2 32.46a7.83 7.83 0 0 0-1.81 1.46.3.3 0 0 0 0 .33.32.32 0 0 0 .28.17h19.29a.31.31 0 0 0 .31-.31A6.76 6.76 0 0 0 18.58 30a.32.32 0 0 0-.44-.07zm-4.32-13.36a4.35 4.35 0 0 1 .54-.22 4.88 4.88 0 0 1 .55-.12 3.51 3.51 0 0 1 3.62 1.9 3.44 3.44 0 0 1 .35 1.21 4.14 4.14 0 0 0-5-1 4 4 0 0 0-1.46 1.23h-.1a3.8 3.8 0 0 1 2.6-2.07.3.3 0 0 0 .26-.35.29.29 0 0 0-.34-.26 4.09 4.09 0 0 0-2.85 2 3.49 3.49 0 0 1 1.83-2.32zm-5.14 2a4 4 0 0 0-3.1.59 4.09 4.09 0 0 0-1.47 1.7 3.34 3.34 0 0 1 0-1.26 3.5 3.5 0 0 1 4.15-2.72 3.31 3.31 0 0 1 1.17.47 3.56 3.56 0 0 1 1.42 1.8 4.26 4.26 0 0 0-.67-.7 4.18 4.18 0 0 0-3.17-1 .3.3 0 0 0-.28.33.31.31 0 0 0 .34.29 3.53 3.53 0 0 1 2.69.8l.19.17a4.2 4.2 0 0 0-1.27-.5zm2.41 2.51a.58.58 0 0 1-.41.18.55.55 0 0 1-.54-.55.53.53 0 0 1 .13-.36.51.51 0 0 1 .3-.17.55.55 0 0 1 .52.87zm0-3a5.86 5.86 0 0 0-.37-.5 4.1 4.1 0 0 1 2-2.61.32.32 0 0 0 .16-.41.31.31 0 0 0-.41-.16 4.48 4.48 0 0 0-2.23 2.69L10 16.9a3.93 3.93 0 0 1 .3-1 3.49 3.49 0 0 1 2-1.82 3.53 3.53 0 0 1 2.69.11 3.57 3.57 0 0 1 1 .73 4.15 4.15 0 0 0-4.57 2.31 4.37 4.37 0 0 0-.34.86zm.81 2.82a.77.77 0 0 1 .77-.77.78.78 0 1 1-.77.77zm.77 1.4a1 1 0 0 0 .24 0c0 .07.07.14.1.2a12.61 12.61 0 0 1 1.1 3.5 17.69 17.69 0 0 1 .25 2.44H14a17.26 17.26 0 0 0-.29-2.44 11.91 11.91 0 0 0-1.29-3.74 1 1 0 0 0 .24.05z"/></g></g></svg>