<svg xmlns="http://www.w3.org/2000/svg" viewBox="0 0 20 20"><defs><style>.cls-1{fill:#fff}</style></defs><title>Asset 6</title><g id="Layer_2" data-name="Layer 2"><g id="Layer_1-2" data-name="Layer 1"><path class="cls-1" d="M8.07.22a7.92 7.92 0 0 0-5.55 2.26 7.62 7.62 0 0 0 0 10.9 7.93 7.93 0 0 0 10.75.3l6.12 6a.23.23 0 0 0 .32 0 .24.24 0 0 0 0-.31l-6.13-6a7.62 7.62 0 0 0 0-10.9A7.91 7.91 0 0 0 8.07.22zm0 .43a7.38 7.38 0 0 1 5.22 2.14 7.18 7.18 0 0 1 0 10.28 7.47 7.47 0 0 1-10.45 0 7.18 7.18 0 0 1 0-10.28A7.4 7.4 0 0 1 8.07.65z"/><path class="cls-1" d="M19.56 20a.46.46 0 0 1-.32-.13l-6-5.88a8.16 8.16 0 0 1-5.21 1.86 8.07 8.07 0 0 1-5.69-2.31 7.85 7.85 0 0 1 0-11.22 8.17 8.17 0 0 1 11.41 0 7.84 7.84 0 0 1 .13 11.06l6 5.88a.44.44 0 0 1 .12.32.41.41 0 0 1-.14.31.42.42 0 0 1-.3.11zM17 17.05l2.56 2.51zM8.07.87A7.18 7.18 0 0 0 3 2.94a7 7 0 0 0 0 10 7.23 7.23 0 0 0 10.13 0 6.94 6.94 0 0 0 0-10A7.14 7.14 0 0 0 8.07.87zM.63 9.54a7.36 7.36 0 0 0 2 3.69 8 8 0 0 0 1.94 1.38 7.88 7.88 0 0 1-1.93-1.39A7.31 7.31 0 0 1 .63 9.54zm2.11-7s-.05 0-.07.06A7.64 7.64 0 0 0 1.59 4a7.77 7.77 0 0 1 1.09-1.37z"/></g></g></svg>