<svg xmlns="http://www.w3.org/2000/svg" viewBox="0 0 12 12.73"><defs><style>.cls-1{fill:#0057ff}</style></defs><title>Asset 3</title><g id="Layer_2" data-name="Layer 2"><path class="cls-1" d="M9.72 8.18a2.28 2.28 0 0 0-1.8.89l-3.5-2a2.32 2.32 0 0 0 .13-.75 2.36 2.36 0 0 0-.13-.75l3.49-1.91a2.28 2.28 0 1 0-.47-1.38 2.36 2.36 0 0 0 .13.72L4.08 5a2.27 2.27 0 1 0 0 2.76l3.49 2a2.32 2.32 0 0 0-.13.75 2.28 2.28 0 1 0 2.28-2.33zm0-7.46a1.56 1.56 0 1 1-1.56 1.56A1.56 1.56 0 0 1 9.72.72zm-7.44 7.2a1.56 1.56 0 1 1 1.56-1.56 1.56 1.56 0 0 1-1.56 1.56zM9.72 12a1.56 1.56 0 1 1 1.56-1.56A1.56 1.56 0 0 1 9.72 12z" id="Layer_1-2" data-name="Layer 1"/></g></svg>