<svg xmlns="http://www.w3.org/2000/svg" viewBox="0 0 72 48.96"><defs><style>.cls-1{fill:#0057ff}</style></defs><title>Asset 1</title><g id="Layer_2" data-name="Layer 2"><g id="Layer_1-2" data-name="Layer 1"><path class="cls-1" d="M8.38 32.05L8 30.58l7.56-2.18.42 1.46-2.88.84 2.34 8.11-1.78.52-2.35-8.12zm8.88 1.03a5.58 5.58 0 0 1-.21-2 4.74 4.74 0 0 1 .54-1.84 4.68 4.68 0 0 1 1.24-1.47 5.39 5.39 0 0 1 1.87-.94 5.6 5.6 0 0 1 1.42-.23 5.19 5.19 0 0 1 1.32.14 4.62 4.62 0 0 1 1.18.47 4.68 4.68 0 0 1 1 .77 5.2 5.2 0 0 1 .8 1.05 6.57 6.57 0 0 1 .54 1.3 5.62 5.62 0 0 1 .22 2 4.79 4.79 0 0 1-.54 1.84 4.49 4.49 0 0 1-1.23 1.46 5.53 5.53 0 0 1-1.88.94 5.44 5.44 0 0 1-2.09.21 4.86 4.86 0 0 1-1.82-.58 4.72 4.72 0 0 1-1.44-1.27 5.63 5.63 0 0 1-.92-1.85zm1.82-.52a4.43 4.43 0 0 0 .62 1.35 3.06 3.06 0 0 0 .92.88 2.73 2.73 0 0 0 1.15.4 3.41 3.41 0 0 0 1.32-.14 3.37 3.37 0 0 0 1.2-.59 2.78 2.78 0 0 0 .76-1 3.18 3.18 0 0 0 .29-1.23 4.33 4.33 0 0 0-.2-1.47 4.61 4.61 0 0 0-.62-1.36 3 3 0 0 0-.91-.89 2.64 2.64 0 0 0-1.14-.4 3.46 3.46 0 0 0-1.33.14 3.37 3.37 0 0 0-1.2.59 2.75 2.75 0 0 0-.75.95 3.1 3.1 0 0 0-.3 1.24 4.4 4.4 0 0 0 .19 1.53zm10.84 2.05L27.15 25l3.11-.9a5.3 5.3 0 0 1 1.74-.22 3.28 3.28 0 0 1 1.35.29 2.66 2.66 0 0 1 1 .77 3.61 3.61 0 0 1 .58 1.16 3.7 3.7 0 0 1 .07 1.34 2.73 2.73 0 0 1-.41 1.2 3.34 3.34 0 0 1-1 1 5.31 5.31 0 0 1-1.57.7l-1.33.39 1 3.38zm.4-5.28l1.33-.33a3 3 0 0 0 .82-.37 1.82 1.82 0 0 0 .51-.53 1.49 1.49 0 0 0 .19-.66 2.1 2.1 0 0 0-.09-.77 2 2 0 0 0-.32-.66 1.48 1.48 0 0 0-.51-.42 1.54 1.54 0 0 0-.7-.17 3.08 3.08 0 0 0-.89.14l-1.33.38zm8.38-4.97L40.91 21l1.34-.39L44.67 29l1.72-.5.36 1.24-5.3 1.53-.36-1.27 1.91-.53-1.61-5.58c-.06-.21-.12-.44-.18-.68l-1 1.55a.6.6 0 0 1-.21.18.44.44 0 0 1-.22.07.68.68 0 0 1-.2 0 .52.52 0 0 1-.15-.07zm7.81.26a8.3 8.3 0 0 1-.36-2.26 4.78 4.78 0 0 1 .29-1.73 3.19 3.19 0 0 1 .85-1.22 3.52 3.52 0 0 1 1.31-.7 3.56 3.56 0 0 1 1.48-.11 3.23 3.23 0 0 1 1.37.58 4.57 4.57 0 0 1 1.19 1.3 8.11 8.11 0 0 1 .9 2.11 8.3 8.3 0 0 1 .36 2.25 4.59 4.59 0 0 1-.3 1.74 3.1 3.1 0 0 1-.86 1.22 3.6 3.6 0 0 1-1.31.7 3.56 3.56 0 0 1-1.48.11 3.19 3.19 0 0 1-1.36-.61 4.6 4.6 0 0 1-1.18-1.31 8.19 8.19 0 0 1-.9-2.07zm1.69-.49a8.44 8.44 0 0 0 .65 1.67 3.32 3.32 0 0 0 .71 1 1.55 1.55 0 0 0 .74.4 1.62 1.62 0 0 0 1.37-.4 1.49 1.49 0 0 0 .42-.73 3.63 3.63 0 0 0 .1-1.2 8.29 8.29 0 0 0-.34-1.75 8.44 8.44 0 0 0-.65-1.67 4 4 0 0 0-.72-1 1.55 1.55 0 0 0-2.12 0 1.49 1.49 0 0 0-.42.73 3.64 3.64 0 0 0-.09 1.2 9.11 9.11 0 0 0 .35 1.75zm5.99-1.73a8.3 8.3 0 0 1-.36-2.26 4.47 4.47 0 0 1 .29-1.74 3.12 3.12 0 0 1 .88-1.21 3.48 3.48 0 0 1 1.3-.7 3.58 3.58 0 0 1 1.48-.11 3.22 3.22 0 0 1 1.38.58 4.44 4.44 0 0 1 1.19 1.3 8.86 8.86 0 0 1 .9 2.11 8.3 8.3 0 0 1 .36 2.25 4.4 4.4 0 0 1-.31 1.74 3.08 3.08 0 0 1-.86 1.22 3.48 3.48 0 0 1-1.3.7 3.57 3.57 0 0 1-1.48.11 3.28 3.28 0 0 1-1.37-.58 4.57 4.57 0 0 1-1.17-1.31 8.19 8.19 0 0 1-.93-2.1zm1.69-.49a8.49 8.49 0 0 0 .64 1.67 3.53 3.53 0 0 0 .72 1 1.55 1.55 0 0 0 .74.4 1.63 1.63 0 0 0 .73 0 1.7 1.7 0 0 0 .64-.36 1.49 1.49 0 0 0 .42-.73 3.92 3.92 0 0 0 .1-1.2 8.29 8.29 0 0 0-.34-1.75 8.44 8.44 0 0 0-.65-1.67 3.79 3.79 0 0 0-.72-1 1.54 1.54 0 0 0-.75-.4 1.59 1.59 0 0 0-1.37.4 1.49 1.49 0 0 0-.42.73 3.64 3.64 0 0 0-.09 1.2 8.4 8.4 0 0 0 .35 1.71z"/><path class="cls-1" d="M70.16 31.13L8.87 48.86a2.55 2.55 0 0 1-3.15-1.74L.1 27.68a2.55 2.55 0 0 1 1.74-3.15L63.13 6.81a2.55 2.55 0 0 1 3.15 1.73L71.9 28a2.54 2.54 0 0 1-1.74 3.13zM2.25 26a1.05 1.05 0 0 0-.71 1.3l5.62 19.41a1.05 1.05 0 0 0 1.3.71L69.75 29.7a1.05 1.05 0 0 0 .71-1.3L64.84 9a1 1 0 0 0-1.3-.72z"/><circle class="cls-1" cx="33.24" cy="1.71" r="1.71"/><path class="cls-1" d="M31.46 3.28L13.9 21.36l3.3-.81L33.13 4.13a2.33 2.33 0 0 1-1.67-.85zm20.34 7.84L35.63 2.2a2.41 2.41 0 0 1-1 1.51l14.21 7.84c1-.15 1.98-.3 2.96-.43z"/></g></g></svg>