<svg xmlns="http://www.w3.org/2000/svg" viewBox="0 0 72 72"><defs><style>.cls-1{fill:#fafafa}</style></defs><title>Asset 1</title><g id="Layer_2" data-name="Layer 2"><g id="Layer_1-2" data-name="Layer 1"><path class="cls-1" d="M25.09 54.21a1.46 1.46 0 0 1-.73-.2 1.48 1.48 0 0 1-.74-1.28V19.27A1.48 1.48 0 0 1 25.83 18l29 16.73a1.48 1.48 0 0 1 0 2.56L25.83 54a1.49 1.49 0 0 1-.74.2zm1.48-32.39v28.36L51.12 36z"/><path class="cls-1" d="M36 72C21.84 72 8.93 63.88 2.58 49.85c-5.44-14.42-2-29.29 8-39.31s24.89-13.4 39.31-8C68.39 11 76.6 30.81 69.42 49.85 63.07 63.88 50.16 72 36 72zm0-69C23 3 11.16 10.4 5.33 23.28c-6.61 17.48.94 35.7 18 43.4 17.43 6.59 35.67-.94 43.34-17.94 5-13.24 1.9-26.91-7.3-36.11A32.84 32.84 0 0 0 36 3z"/></g></g></svg>