<svg xmlns="http://www.w3.org/2000/svg" viewBox="0 0 44.39 29.36"><defs><style>.cls-1,.cls-2{fill:#fff}.cls-2{stroke:#fff;stroke-miterlimit:10;stroke-width:.25px}</style></defs><title>Asset 4</title><g id="Layer_2" data-name="Layer 2"><g id="Layer_1-2" data-name="Layer 1"><path class="cls-1" d="M21.64 15.31a3 3 0 0 0-.64-1.82h.12a8.34 8.34 0 0 0-1-.63.53.53 0 0 1-.26-.25 3 3 0 0 0-.79-.23 3 3 0 0 0-5.29-1.43A3 3 0 0 0 9 14.54a3 3 0 0 0-1.2 5.21 3 3 0 0 0-1.95 2.8 2.85 2.85 0 0 0 .4 1.45 3 3 0 1 0 4.29 4A3 3 0 0 0 15 26.79a3 3 0 0 0 4.4-1.63 3 3 0 0 0 1.43.37 3 3 0 0 0 3-3 2.92 2.92 0 0 0-.57-1.74 3 3 0 0 0-1.56-5.5zm-3-2.13a2.13 2.13 0 0 1 2.13 2.13 2.58 2.58 0 0 1 0 .39v.12a.9.9 0 0 1-.06.22l-.07.16a1.09 1.09 0 0 1-.08.15.86.86 0 0 1-.1.16l-.09.13-.13.14-.11.11-.14.12a1.67 1.67 0 0 1-.28.18h-.09l-.25.1h-.1a3.23 3.23 0 0 1-.33.06 2.87 2.87 0 0 0-.65-.27h-.1l-.26-.05h-.46a2.24 2.24 0 0 1-.5-.52 2.23 2.23 0 0 1-.32-.87v-.05a1.62 1.62 0 0 1 0-.22 2.13 2.13 0 0 1 2.01-2.19zm-4.3-.89v-.08a2.09 2.09 0 0 0-.11-.43 2.13 2.13 0 0 1 4 .61 2.46 2.46 0 0 0-.39.09l-.35.14h-.08a2.33 2.33 0 0 0-.34.2l-.28.22-.06.06a3.45 3.45 0 0 0-.26.28v.05a2.75 2.75 0 0 0-.19.28.25.25 0 0 0 0 .07 2.91 2.91 0 0 0-.18.35.25.25 0 0 1 0 .07 1.7 1.7 0 0 0-.1.32 3.19 3.19 0 0 0-.73-.39h-.07a2.24 2.24 0 0 0-.37-.1h-.15a2.11 2.11 0 0 1-.21-.31 2.09 2.09 0 0 0 .11-.43.22.22 0 0 0 0-.08 2.31 2.31 0 0 0 .05-.46 3.42 3.42 0 0 0-.27-.46zm-.11 2.61h.36l.27.11a2.32 2.32 0 0 1 .61.47.65.65 0 0 1 .15.18v.12a2.1 2.1 0 0 0 .06.24l.06.19.06.15.07.15.08.15v.19a2 2 0 0 1-.05.42v.09a2.15 2.15 0 0 1-.69 1.12s-.06 0-.09.06a1.8 1.8 0 0 0-.2-.19l-.22-.16A2.87 2.87 0 0 0 14 18l-.25-.07h-.6a3 3 0 0 0-.42 0 3 3 0 0 0 0-.42 2.56 2.56 0 0 0 0-.39V17c0-.12-.05-.24-.08-.36a1.74 1.74 0 0 0-.14-.38v-.05a3.07 3.07 0 0 0-.17-.31 1.71 1.71 0 0 1 .21-.26h.07l.15-.06.11-.06.15-.08.11-.06.13-.09.11-.08.11-.1h.06a2.12 2.12 0 0 1 .7-.21zm-2.84-4.28a2.13 2.13 0 0 1 2 1.29 1.58 1.58 0 0 1 .11.37 2.09 2.09 0 0 1 0 .43 2 2 0 0 1 0 .43v.05a1.65 1.65 0 0 1-.11.36 2.21 2.21 0 0 1-.73.9h-.07a1.34 1.34 0 0 1-.31.17h-.06a2.26 2.26 0 0 1-.79.15h-.19a.8.8 0 0 0-.16-.08h-.09l-.17-.07h-.34l-.22-.05a2.13 2.13 0 0 1 1.21-3.88zm-3.81 6.82a2.13 2.13 0 0 1 2.13-2.13 2.31 2.31 0 0 1 .37 0h.1l.31.1h.09a1.87 1.87 0 0 1 .31.17 2.29 2.29 0 0 1 .52.51 1.1 1.1 0 0 1 .09.14 2.25 2.25 0 0 1 .12.21l.06.13a2.58 2.58 0 0 1 .08.26v.12a2.58 2.58 0 0 1 0 .4 2.33 2.33 0 0 1 0 .38v.07a1.51 1.51 0 0 1-.1.3.5.5 0 0 1 0 .13l-.09.16a1.62 1.62 0 0 1-.1.18l-.12.14a2.13 2.13 0 0 1-.26.26l-.14.12-.18.1a2.06 2.06 0 0 1-1 .29 2.13 2.13 0 0 1-2.19-2.04zm2.51 9.34A1.17 1.17 0 0 1 10 27a1.42 1.42 0 0 1-.07.22 2.1 2.1 0 0 1-2 1.3 2.13 2.13 0 0 1-.91-4.05l.17-.07.18-.05.2-.05h.13a2.21 2.21 0 0 1 .85.09h.07l.24.1.13.07.17.1.18.16.1.08.12.14.15.2a1.09 1.09 0 0 1 .08.15 2 2 0 0 1 .11.2l.06.22a1.09 1.09 0 0 1 .05.17 1.84 1.84 0 0 1 .05.41 1.75 1.75 0 0 1 .03.39zm.17-3.44c-.06.05-.11.11-.17.17l-.14.14-.12.17-.09.18a2.9 2.9 0 0 0-.33-.2h-.1a1.88 1.88 0 0 0-.3-.12h-.08a2.34 2.34 0 0 0-.38-.09h-.1a2.83 2.83 0 0 0-.41 0 3.57 3.57 0 0 0-.47 0h-.11a3.6 3.6 0 0 0-.44.12H7a2.19 2.19 0 0 1-.26-1 2.13 2.13 0 0 1 2.13-2.13 2.1 2.1 0 0 1 1.45.58 1.57 1.57 0 0 1 .21.24l.07.08a2 2 0 0 1 .18.32v.06a2.4 2.4 0 0 1 .12.38 2.12 2.12 0 0 1 .05.44 1.53 1.53 0 0 1 0 .3 3.91 3.91 0 0 0-.6.4zm4.1 2.57v.07a2.13 2.13 0 0 1-3.46 1.17 1.55 1.55 0 0 0 .06-.31.15.15 0 0 0 0-.07 2.19 2.19 0 0 0 0-.36 3.13 3.13 0 0 0 0-.44v-.08a3.25 3.25 0 0 0-.11-.42.17.17 0 0 0 0-.05 2.94 2.94 0 0 0-.43-.8l.08-.15v-.06a2 2 0 0 1 .25-.32 2.16 2.16 0 0 1 .33-.27 2.14 2.14 0 0 1 .4-.2 2.42 2.42 0 0 1 .36-.1h.39a2.33 2.33 0 0 1 .37 0h.11l.27.08h.09a2 2 0 0 1 .64.43 1.59 1.59 0 0 1 .2.24l.07.08a1.71 1.71 0 0 1 .13.23 2.12 2.12 0 0 1 .25 1 2.45 2.45 0 0 1 0 .33zm-.43-3.11l-.27.1-.31-.14-.35-.11h-.08l-.26-.05h-.81v-.29a1.1 1.1 0 0 0 0-.18v-.09a1.05 1.05 0 0 0-.06-.24 2.25 2.25 0 0 0-.08-.24 1.6 1.6 0 0 0-.1-.23 2.25 2.25 0 0 0-.12-.21l-.13-.18v-.05a2.09 2.09 0 0 0-.14-.17 1.76 1.76 0 0 1 .12-.45 2.46 2.46 0 0 0 .34-.22 3.42 3.42 0 0 0 .57-.57 3.15 3.15 0 0 0 .22-.33 1.91 1.91 0 0 1 .34-.1h.06a2.22 2.22 0 0 1 .37 0 2.56 2.56 0 0 1 .39 0h.05l.35.11h.06a2 2 0 0 1 .32.17h.05l.25.21a1.57 1.57 0 0 1 .2.25.71.71 0 0 1 .1.14l.11.2.06.14c0 .08.05.16.08.25v.12a1.92 1.92 0 0 1 0 .78 1.09 1.09 0 0 0-.05.17l-.08.24a3 3 0 0 0-1.2.97zm2.6 3.58a2.12 2.12 0 0 1-1.31-.45 2.43 2.43 0 0 0 0-.38 2.83 2.83 0 0 0 0-.29.22.22 0 0 0 0-.08v-.28a1.6 1.6 0 0 0-.05-.21.19.19 0 0 1 0-.07L15 24.4v-.06a1.08 1.08 0 0 0-.08-.19v-.07l-.1-.17-.06-.08a1.13 1.13 0 0 0-.1-.13l-.08-.1.06-.15v-.1a2.12 2.12 0 0 1 1-1l.11-.06h.1l.2-.06h.6a1 1 0 0 1 .24 0 1.11 1.11 0 0 1 .25.05l.18.05.16.07.19.1.12.08a1.5 1.5 0 0 1 .24.2 1.7 1.7 0 0 1 .22.24l.07.08.14.25s.05.09.07.13a1.21 1.21 0 0 1 .08.25 1 1 0 0 1 .05.16 2.1 2.1 0 0 1 .05.43 2.13 2.13 0 0 1-2.18 2.06zm2.33-4.87l-.14.12-.09.08-.15.09a.41.41 0 0 1-.11.07 3.06 3.06 0 0 0-.8-.42h-.06a1.91 1.91 0 0 0-.41-.11H17a3.42 3.42 0 0 0-.44 0 2.42 2.42 0 0 0-.47 0 3 3 0 0 0 0-.43v-.67A.5.5 0 0 0 16 20l-.06-.21a.76.76 0 0 1 0-.11 2.8 2.8 0 0 0-.15-.3l.06-.05a2 2 0 0 0 .27-.23l.06-.06.24-.28v-.06a1.94 1.94 0 0 0 .21-.34 3 3 0 0 0 .17-.41 2 2 0 0 1 .59-.09 2.45 2.45 0 0 1 .38 0h.11l.26.08h.1a1.74 1.74 0 0 1 .33.18c.09.06.17.14.26.21a1.64 1.64 0 0 1 .21.25.27.27 0 0 1 .07.08 1.92 1.92 0 0 1 .18.31v.06a1.63 1.63 0 0 1 .13.39 2 2 0 0 1 0 .42v.15a1.94 1.94 0 0 1-.24.86l-.13.2-.05.06a1 1 0 0 1-.13.16zm1.93 3.17a2.1 2.1 0 0 1-1.28-.43 2.71 2.71 0 0 0 0-.41.22.22 0 0 0 0-.08 3 3 0 0 0-.27-.83 3 3 0 0 0-.23-.38 2.64 2.64 0 0 0 .55-.45.34.34 0 0 0 .08-.09 2 2 0 0 0 .19-.22.86.86 0 0 0 .07-.1c.06-.1.13-.2.18-.3a1.08 1.08 0 0 0 .08-.19l.06-.14a2.25 2.25 0 0 0 .08-.24l.06-.26a2.39 2.39 0 0 1 .48-.08 2 2 0 0 1 .41 0l.17.05.21.07.2.1.16.08.19.16a2.07 2.07 0 0 1 .78 1.63 2.13 2.13 0 0 1-2.17 2.11zm1.81-4.49a3.09 3.09 0 0 0-.8-.43h-.06a2.73 2.73 0 0 0-.41-.1h-.62a2.19 2.19 0 0 0-.36 0 1.91 1.91 0 0 0-.06-.33.13.13 0 0 1 0-.06 2.92 2.92 0 0 0-.32-.72 2.35 2.35 0 0 0-.23-.32A1.51 1.51 0 0 0 20 18l.27-.16a3 3 0 0 0 1.21-1.63 2.13 2.13 0 0 1 1.09 4z"/><path class="cls-2" d="M44.25 8c-.11-.36-1.1-.93-2.22-1.46l-.36-.47c-1.28-1.66-4.13-2.23-5.44-2.41l.47-.4-.41-.18c-1-.42-2.72-.09-3.71.15l.45-.7-.77.26A14.41 14.41 0 0 0 28.91 5a11.75 11.75 0 0 0 0-2.24v-.37l-.55.19a3.48 3.48 0 0 0-.2-1.08L28 1.28l-.91.24-.01-1.33-.38.16a10 10 0 0 0-2.15 1.46l-.08-.59-.41.44c-1.67 1.81-1.78 5.47-1.79 5.64a24.41 24.41 0 0 0 .29 3.32 9.08 9.08 0 0 0-1.22.58 4 4 0 0 0 .36-1.2 5.68 5.68 0 0 0-.29-2.52 11.19 11.19 0 0 0-1.26-2.68l-.56.36a10.8 10.8 0 0 1 1.18 2.53A5.11 5.11 0 0 1 21 9.91a5.11 5.11 0 0 1-1.51 2.71 15.77 15.77 0 0 0-1.18-4.49 6.14 6.14 0 0 0-3.27-3.67l-.44-.18.12.46a10.42 10.42 0 0 0-2.3-.45h-.35l.4 1c-.22.06-.85-.24-.85-.24v.51a2.39 2.39 0 0 0 .18.87h-.53l.09.29a9.65 9.65 0 0 0 .72 1.7 14.18 14.18 0 0 0-3.56-.67h-.71l.59.4a6.9 6.9 0 0 0-3.15 1L5 9.57l.52.15c-1 .54-3.24 1.85-3.79 3.48l-.12.35C0 14.92.1 15.23.14 15.36s.75.61 2 1.07l.32.36C3.53 18 5.87 18.32 7.1 18.41a.92.92 0 0 1-.1-.49 8.18 8.18 0 0 1-3.79-1.08l1.41-.06-1.22-.41a13.41 13.41 0 0 1-2.78-1.15 11.87 11.87 0 0 1 2.11-2l1.21-1-1.55.61c1-1.67 3.81-2.94 3.84-3l.59-.26L6 9.38a10.2 10.2 0 0 1 3.13-.71l.68-.06-.37-.24a25 25 0 0 1 3.33.82l.15-.45c-.25-.08-.68-.94-1-1.79h.8l-.33-.36a3.17 3.17 0 0 1-.49-1 1.69 1.69 0 0 0 1 .16l.24-.08-.33-.86a13.89 13.89 0 0 1 2.19.51l.41.15-.09-.36a6 6 0 0 1 2.59 3.25 15 15 0 0 1 1.15 4.55 9 9 0 0 1 1.16-.08l.23-.28h.09a8.23 8.23 0 0 1 2.11-1.22 19 19 0 0 0 1.07 3.87c.71 1.73 1.44 3.52 3.66 4.72l.55.3-.13-.58a10.72 10.72 0 0 0 2.53.73h.43l-.43-1.27.94-.05v-.26a3.29 3.29 0 0 0-.19-1.06h.59l-.11-.37a12.21 12.21 0 0 0-.78-2.1 15 15 0 0 0 3.93 1.1h.85l-.67-.54c1-.07 2.79-.29 3.53-1l.34-.3-.58-.23c1.18-.57 3.66-2 4.28-3.92l.13-.4c1.81-1.46 1.7-1.85 1.66-1.97zM27.53 18.86l-.53-.24.1.43a8.07 8.07 0 0 1-2.86-4.16 18.05 18.05 0 0 1-1-3.47l5.05 7.76c-.42-.18-.75-.32-.76-.32zm1.09.43l-5.35-8.21c.07 0 .72-.31.9-.36l5.53 8.2.25.77a10.67 10.67 0 0 1-1.33-.4zm1.06-.73l-5.32-7.9 1.18-.34 4.88 6.83H30l.36.47a1.74 1.74 0 0 1 .31.9zm1.26-1.41h-.29l-4.91-6.88 1.13-.27 3.33 4.43-.14-.06s.54 1.72.88 2.78zm-.4-2.59l-3.47-4.62 1.13-.22 4.31 5.56c-.76-.28-1.51-.54-1.97-.72zm3.6.76h-.8l.39.31-.85-.24-4.48-5.71 1-.2 4.78 5.84zm.32 0l-4.8-5.87 1-.14 4.91 5.92c-.42.05-.81.07-1.11.09zm1.33-.12l-4.91-5.92L32 9.15 36.92 15a9.83 9.83 0 0 1-1.13.2zm1.33-.27l-4.89-5.8L33.3 9l4.33 5-.25.11-.66.26.93.37a3.65 3.65 0 0 1-.53.19zm.69-1L33.53 9h1.17l4 4.51zm1-.54L34.94 9h1.56l3.31 3.82a11.2 11.2 0 0 1-.98.56zm1.19-.74L36.75 9h1.13L40 11.41l.6.68a8.61 8.61 0 0 1-.6.56zM38.14 9l1.1.08 1.44 1.84-.5.4zm2.64 3l-.55-.63.64-.22.13-.09.67-.24a5.18 5.18 0 0 1-.89 1.18zm.53-1.59l-.48.38-1.34-1.7h.74c.24 0 .29-.45 0-.48a42.94 42.94 0 0 0-7.08-.06 90.08 90.08 0 0 0-10 1.85 24.93 24.93 0 0 1-.27-3.13 11.16 11.16 0 0 1 1.24-4.74l.06.4.4-.38a13.58 13.58 0 0 1 2-1.51v1.18l1.1-.22a2.07 2.07 0 0 1 0 1l-.18.53.84-.28c.06 1.11.15 2.91.15 2.91a27 27 0 0 1 3.05-2.33l-.27.43L32 4a10.57 10.57 0 0 1 3.54-.5l-.74.63h.69s3.5.27 5.24 1.79h-1.56l1.34.59a15.84 15.84 0 0 1 3.14 1.66 12.74 12.74 0 0 1-2.34 2.22z"/></g></g></svg>