<svg xmlns="http://www.w3.org/2000/svg" viewBox="0 0 33.21 36.02"><defs><style>.cls-1{fill:#4d4d4d}</style></defs><title>Asset 6</title><g id="Layer_2" data-name="Layer 2"><g id="Layer_1-2" data-name="Layer 1"><path class="cls-1" d="M28.4 27.16a.56.56 0 0 0-.76.23 1.74 1.74 0 0 1-.1.19h-2.25a18 18 0 0 0 .63-2.12.56.56 0 1 0-1.09-.26 18.32 18.32 0 0 1-.75 2.38h-4.33a44.3 44.3 0 0 0 .51-6.19h2.82a.57.57 0 0 0 .56-.57.56.56 0 0 0-.56-.56h-2.82a42.9 42.9 0 0 0-.6-6.75h4.19a16.1 16.1 0 0 1 .68 1.85.58.58 0 0 0 .54.4.45.45 0 0 0 .16 0 .56.56 0 0 0 .38-.7c-.16-.52-.34-1-.54-1.52h2.14a2.61 2.61 0 0 1 .17.28.58.58 0 0 0 .49.28.48.48 0 0 0 .28-.08.57.57 0 0 0 .21-.77l-.23-.37a.56.56 0 0 0-.23-.37 15.38 15.38 0 0 0-5-4.76A15.34 15.34 0 0 0 11.69 6 .57.57 0 1 0 12 7.13a9.9 9.9 0 0 1 1.11-.21 14.42 14.42 0 0 0-2.12 5.46H6.32a.57.57 0 0 0-.26 0H3.94c.14-.18.28-.37.43-.55a.56.56 0 0 0-.86-.72 16.77 16.77 0 0 0-1 1.37.56.56 0 0 0-.23.37 15.2 15.2 0 1 0 26.36 15.07.56.56 0 0 0-.24-.76zm-4.82 1.54a13.21 13.21 0 0 1-2.43 3.5 9 9 0 0 1-3.67 2.33 16 16 0 0 0 2.08-5.83zm-4.14-16.32a15 15 0 0 0-2-5.26 10.5 10.5 0 0 1 5.82 5.26zm2.89-3.69a14.26 14.26 0 0 1 4.12 3.69h-1.89a13.91 13.91 0 0 0-3-4.11l.77.42zm-9.49 1.08c.7-1.89 1.58-3 2.36-3s1.89 1.46 2.64 3.89c.17.55.32 1.13.46 1.74h-6.21a22.29 22.29 0 0 1 .75-2.61zm-2.1 8.8a.57.57 0 0 0 .6-.53 37.82 37.82 0 0 1 .53-4.53h6.66a42.25 42.25 0 0 1 .6 6.75h-2.81a.56.56 0 0 0-.56.56.57.57 0 0 0 .56.57h2.81a41 41 0 0 1-.51 6.19h-2.3a.56.56 0 0 0 0 1.12h2.1c-.17.82-.36 1.6-.58 2.31-.75 2.43-1.74 3.88-2.64 3.88s-1.6-1-2.29-2.84a.56.56 0 1 0-1.05.4 9.82 9.82 0 0 0 1.06 2.09 10.82 10.82 0 0 1-6.11-5.84.56.56 0 0 0-.06-1.12h-.44a18.53 18.53 0 0 1-1.24-6.19h1.12a.57.57 0 0 0 .56-.57.56.56 0 0 0-.56-.56H5.07a18.13 18.13 0 0 1 1.48-6.75h4.18a42.37 42.37 0 0 0-.52 4.49.57.57 0 0 0 .53.59zm-9.6 2.82H4a19.59 19.59 0 0 0 1.1 6.19H2.86a14 14 0 0 1-1.72-6.19zm4.19-7.88A19.08 19.08 0 0 0 4 20.26H1.14a14 14 0 0 1 2-6.75zM3.54 28.7h2a14.83 14.83 0 0 0 1.62 2.8 12.53 12.53 0 0 0 1.65 1.87 14.26 14.26 0 0 1-5.27-4.67zm18 4.69L22 33a14.36 14.36 0 0 0 2.88-4.29h2a14.1 14.1 0 0 1-5.32 4.69z"/><path class="cls-1" d="M5.86 11.15a.59.59 0 0 0 .33.11.57.57 0 0 0 .33-.11c.17-.13 4.17-3.1 4.17-6.65a4.5 4.5 0 1 0-9 0c0 3.63 4 6.53 4.17 6.65zm.33-10A3.38 3.38 0 0 1 9.57 4.5C9.57 7 7.1 9.22 6.19 10c-.91-.76-3.38-3-3.38-5.5a3.38 3.38 0 0 1 3.38-3.37z"/><path class="cls-1" d="M8.44 4.5a.56.56 0 1 0-1.12 0 1.13 1.13 0 1 1-2.25 0 1.12 1.12 0 0 1 1.12-1.12.57.57 0 0 0 .56-.57.56.56 0 0 0-.56-.56A2.25 2.25 0 1 0 8.44 4.5zM28.7 15.2a4.51 4.51 0 0 0-4.5 4.5c0 3.62 4 6.53 4.18 6.65a.57.57 0 0 0 .66 0c.17-.12 4.17-3.09 4.17-6.64a4.51 4.51 0 0 0-4.51-4.5zm0 10c-.91-.74-3.37-3-3.37-5.47a3.38 3.38 0 1 1 6.75 0c0 2.44-2.47 4.72-3.38 5.47z"/><path class="cls-1" d="M30.39 19.14a.56.56 0 0 0-.56.56 1.13 1.13 0 1 1-1.13-1.13.56.56 0 1 0 0-1.12A2.25 2.25 0 1 0 31 19.7a.56.56 0 0 0-.56-.56zM6.75 24.2c0 3.63 4 6.53 4.18 6.65a.56.56 0 0 0 .33.1.58.58 0 0 0 .33-.1c.17-.13 4.17-3.1 4.17-6.65a4.51 4.51 0 0 0-9 0zm4.51-3.38a3.38 3.38 0 0 1 3.37 3.38c0 2.44-2.47 4.72-3.38 5.48-.91-.74-3.37-3-3.37-5.48a3.38 3.38 0 0 1 3.38-3.38z"/><path class="cls-1" d="M11.26 26.45a2.25 2.25 0 0 0 2.25-2.25.57.57 0 0 0-1.13 0 1.13 1.13 0 1 1-1.12-1.12.57.57 0 0 0 .56-.57.56.56 0 0 0-.56-.56 2.25 2.25 0 1 0 0 4.5z"/></g></g></svg>