<?xml version="1.0" standalone="no"?>
<!DOCTYPE svg PUBLIC "-//W3C//DTD SVG 20010904//EN"
 "http://www.w3.org/TR/2001/REC-SVG-20010904/DTD/svg10.dtd">
<svg version="1.0" xmlns="http://www.w3.org/2000/svg"
 width="987.000000pt" height="987.000000pt" viewBox="0 0 987.000000 987.000000"
 preserveAspectRatio="xMidYMid meet">
<metadata>
Created by potrace 1.11, written by Peter Selinger 2001-2013
</metadata>
<g transform="translate(0.000000,987.000000) scale(0.100000,-0.100000)"
fill="#000000" stroke="none">
<path d="M3140 9844 c77 -53 266 -190 284 -205 12 -9 64 -52 116 -94 375 -304
786 -734 1089 -1140 158 -211 201 -272 201 -283 0 -6 4 -12 9 -14 4 -1 37 -48
73 -103 54 -85 87 -138 185 -300 7 -11 17 -29 22 -40 6 -11 31 -56 56 -100
112 -198 273 -544 383 -820 80 -203 229 -665 247 -768 3 -16 10 -38 16 -48 5
-11 8 -19 5 -19 -2 0 0 -16 6 -36 5 -20 11 -44 13 -53 2 -9 13 -58 25 -109 12
-51 23 -103 25 -115 1 -12 14 -83 28 -157 28 -150 41 -234 58 -360 11 -90 13
-104 24 -215 3 -38 8 -88 10 -110 2 -22 7 -85 11 -140 3 -55 8 -102 10 -104 7
-8 350 113 451 159 24 11 45 20 47 20 21 0 372 176 511 255 55 32 109 63 120
69 22 13 81 50 165 105 147 95 426 304 534 401 132 117 183 165 286 269 95 95
229 245 329 366 124 150 301 412 424 625 69 119 267 530 267 553 0 1 -60 -56
-133 -128 -169 -165 -198 -191 -332 -301 -386 -317 -796 -573 -1217 -759 -56
-25 -112 -50 -123 -55 -45 -20 -204 -79 -255 -95 -30 -9 -72 -23 -92 -31 -36
-13 -241 -71 -285 -80 -12 -2 -34 -9 -47 -14 -31 -11 -32 -10 -57 83 -72 258
-235 697 -361 967 -105 226 -263 529 -333 641 -14 21 -25 41 -25 44 0 8 -156
251 -228 355 -354 512 -771 946 -1213 1261 -300 214 -544 348 -884 486 -60 25
-114 46 -120 47 -5 1 -73 23 -150 48 -77 25 -153 48 -170 52 l-30 7 25 -17z"/>
<path d="M1980 9424 c25 -26 54 -57 65 -68 11 -12 54 -59 95 -106 41 -47 77
-87 80 -90 36 -36 252 -297 335 -405 33 -43 65 -83 71 -89 5 -6 50 -65 100
-131 49 -66 93 -124 97 -130 24 -29 185 -257 259 -365 175 -256 386 -594 476
-760 13 -25 28 -49 32 -55 4 -5 47 -82 95 -170 392 -720 678 -1433 855 -2135
18 -69 34 -136 36 -150 3 -14 11 -52 19 -85 12 -53 24 -110 40 -195 3 -14 7
-36 10 -50 2 -14 7 -38 9 -55 16 -97 26 -166 32 -210 3 -27 7 -57 9 -65 4 -20
13 -102 21 -175 6 -62 8 -88 20 -240 15 -191 8 -800 -11 -925 -2 -14 -6 -55
-10 -92 -3 -37 -7 -75 -9 -85 -2 -10 -7 -43 -10 -74 -4 -31 -9 -67 -11 -80 -3
-13 -7 -41 -10 -64 -3 -22 -8 -47 -10 -55 -2 -8 -6 -32 -9 -52 -3 -21 -10 -56
-15 -77 -10 -46 -2 -51 64 -40 22 4 81 13 130 19 100 14 104 14 160 25 22 4
51 9 65 11 14 3 32 7 40 9 8 3 32 7 53 11 21 3 93 19 160 36 67 16 129 31 137
33 149 32 677 213 875 300 45 20 211 98 280 131 109 52 350 184 470 257 146
89 471 311 495 337 3 3 37 30 75 60 39 30 72 57 75 60 3 3 30 25 60 50 131
106 331 297 492 468 45 48 255 294 297 348 148 190 441 628 441 659 0 5 6 16
14 24 23 26 188 346 246 476 12 28 33 73 46 102 59 132 218 552 244 648 5 17
27 93 50 170 47 163 90 329 120 469 12 54 24 108 26 120 10 40 62 331 69 376
10 68 16 110 21 134 7 36 13 142 7 121 -8 -29 -101 -262 -129 -323 -13 -29
-24 -54 -24 -56 0 -2 -21 -48 -46 -103 -297 -636 -673 -1217 -1112 -1718 -113
-129 -401 -419 -521 -525 -599 -528 -1304 -910 -2026 -1096 -77 -20 -149 -38
-160 -40 -155 -31 -230 -45 -277 -52 l-58 -9 -1 41 c-1 23 -2 52 -3 66 -2 14
-6 68 -10 121 -4 53 -9 107 -11 120 -2 13 -6 51 -9 84 -6 68 -14 136 -21 180
-3 17 -7 50 -10 75 -4 25 -10 68 -15 95 -5 28 -11 66 -14 85 -3 19 -15 87 -26
150 -12 63 -22 124 -24 135 -2 11 -9 38 -14 60 -6 22 -13 56 -16 75 -3 19 -10
50 -15 68 -5 17 -8 32 -6 32 3 0 0 11 -5 26 -6 14 -12 37 -15 52 -7 39 -60
243 -85 332 -12 41 -23 82 -25 90 -7 30 -76 248 -117 365 -82 238 -175 469
-288 720 -89 197 -277 547 -385 715 -55 86 -157 239 -190 285 -20 28 -43 61
-53 75 -9 14 -34 48 -55 75 -21 28 -51 66 -65 85 -37 48 -177 215 -226 270
-68 76 -377 382 -451 447 -82 72 -206 171 -290 234 -33 24 -62 46 -65 49 -7 8
-54 39 -170 117 -218 145 -446 272 -695 386 -194 89 -201 91 -145 31z"/>
<path d="M5473 9093 c69 -71 145 -150 169 -178 24 -27 50 -56 58 -65 59 -61
284 -346 366 -464 37 -52 50 -62 120 -93 141 -62 217 -99 324 -158 58 -32 118
-64 134 -73 60 -31 337 -222 432 -297 251 -198 470 -418 676 -677 49 -62 94
-112 99 -110 30 8 285 190 441 314 72 57 86 73 78 86 -5 9 -51 69 -102 133
-583 730 -1341 1260 -2203 1539 -71 23 -137 44 -145 46 -8 2 -69 17 -135 35
-66 17 -129 33 -140 35 -149 29 -227 44 -259 49 l-39 5 126 -127z"/>
<path d="M1995 8454 c-27 -20 -72 -52 -100 -72 -314 -229 -663 -567 -904 -877
-34 -44 -68 -88 -76 -97 -41 -49 -195 -283 -271 -409 -99 -168 -229 -429 -303
-612 -99 -243 -199 -574 -237 -777 -3 -14 -7 -32 -9 -40 -2 -8 -7 -31 -10 -50
-3 -19 -10 -57 -15 -85 -5 -27 -12 -72 -16 -100 -3 -27 -8 -58 -9 -67 -2 -9
-7 -48 -10 -85 -4 -37 -8 -79 -11 -93 -22 -140 -22 -704 0 -880 2 -14 7 -56
10 -93 4 -37 9 -76 11 -85 1 -9 6 -42 10 -72 12 -96 75 -401 106 -515 184
-670 482 -1240 928 -1775 115 -138 387 -413 526 -531 595 -508 1271 -846 2030
-1014 39 -9 86 -18 105 -21 19 -3 53 -9 75 -14 22 -5 63 -12 90 -16 28 -3 58
-8 67 -9 9 -2 48 -7 85 -10 37 -4 77 -9 88 -11 127 -25 814 -24 966 1 13 2 47
6 74 9 28 4 61 8 75 11 14 2 48 7 75 10 28 3 68 10 90 15 22 5 60 12 85 15 24
4 47 8 50 10 3 2 23 6 45 9 22 4 48 9 57 12 9 3 25 7 35 9 133 27 497 143 678
217 102 42 400 184 490 235 713 401 1309 978 1725 1670 102 169 204 365 270
518 23 55 50 118 60 140 16 37 99 266 104 290 2 6 11 37 21 70 52 167 120 455
141 590 1 11 5 36 8 55 16 111 26 183 32 250 3 41 8 78 11 83 2 4 1 7 -4 7 -4
-1 -42 -49 -83 -108 -68 -99 -255 -352 -293 -398 -9 -10 -42 -50 -73 -89 -241
-299 -483 -534 -794 -772 -453 -346 -952 -622 -1535 -850 -170 -67 -482 -171
-610 -205 l-50 -12 35 -7 c39 -7 490 -4 560 4 25 3 72 9 105 13 33 3 69 8 80
10 11 2 40 7 65 10 25 3 64 9 88 15 23 5 59 12 78 15 90 14 337 76 489 123
137 41 376 124 396 137 16 10 2 -12 -32 -51 -14 -16 -50 -57 -79 -90 -58 -65
-258 -266 -330 -330 -307 -274 -672 -507 -1045 -669 -60 -26 -119 -51 -130
-56 -81 -36 -440 -148 -525 -164 -14 -2 -54 -11 -90 -20 -36 -8 -108 -22 -160
-31 -127 -21 -135 -23 -210 -30 -36 -4 -72 -9 -81 -10 -35 -7 -291 -18 -399
-18 -115 1 -316 10 -381 18 -19 3 -56 7 -84 10 -119 13 -343 53 -430 76 -22 6
-48 13 -57 14 -51 10 -220 60 -322 95 -323 111 -632 264 -911 451 -52 34 -276
199 -285 209 -3 3 -21 18 -40 34 -170 138 -364 332 -554 556 -49 57 -148 193
-223 305 -241 359 -424 767 -534 1189 -31 121 -35 138 -44 191 -3 17 -8 37
-11 46 -2 9 -7 32 -9 50 -3 19 -7 45 -10 59 -5 26 -8 46 -20 139 -4 30 -8 61
-10 70 -20 102 -27 619 -12 781 53 544 176 981 409 1445 96 192 180 331 327
541 38 54 171 222 213 269 14 17 36 41 48 55 57 66 256 262 351 345 111 98
341 274 397 304 12 6 22 15 22 20 0 4 -18 32 -40 62 -23 30 -49 64 -58 77 -74
100 -247 324 -274 354 l-33 37 -50 -35z"/>
</g>
</svg>
