<svg xmlns="http://www.w3.org/2000/svg" viewBox="0 0 91 91"><path d="M68.7 63.2H23.8c-1.2 0-2.2 1-2.2 2.2s1 2.2 2.2 2.2h44.9c1.2 0 2.2-1 2.2-2.2s-.9-2.2-2.2-2.2zm6.8-8h-60c-1.2 0-2.2 1-2.2 2.2s1 2.2 2.2 2.2h59.9c1.2 0 2.2-1 2.2-2.2s-.9-2.2-2.1-2.2zm-57.1-3.4h54.2c1.2 0 2.2-1 2.2-2.2s-1-2.2-2.2-2.2H18.4c-1.2 0-2.2 1-2.2 2.2s1 2.2 2.2 2.2zm9.8-8h34.6c1.2 0 2.2-1 2.2-2.2s-1-2.2-2.2-2.2H28.2c-1.2 0-2.2 1-2.2 2.2s.9 2.2 2.2 2.2zm2.6-8h24.9c1.2 0 2.2-1 2.2-2.2s-1-2.2-2.2-2.2H30.8c-1.2 0-2.2 1-2.2 2.2s1 2.2 2.2 2.2zm7.6-8H48c1.2 0 2.2-1 2.2-2.2s-1-2.2-2.2-2.2h-9.6c-1.2 0-2.2 1-2.2 2.2s1 2.2 2.2 2.2z"/></svg>