<svg xmlns="http://www.w3.org/2000/svg" viewBox="0 0 91 91"><path d="M53.4 26.8c1.6-1.1 3.5-1.6 5.4-1.6 5.3 0 9.6 4.3 9.6 9.6 0 1.6-.4 3.1-1.1 4.4-.8 1.5-.2 3.3 1.3 4 .4.2.9.3 1.4.3 1.1 0 2.1-.6 2.7-1.6 1.2-2.2 1.8-4.7 1.8-7.2 0-8.6-7-15.6-15.6-15.6-3.1 0-6.2.9-8.7 2.7-1.4.9-1.7 2.8-.8 4.2.7 1.4 2.6 1.7 4 .8zm5.4-12.4c1.7 0 3-1.3 3-3V5.7c0-1.7-1.3-3-3-3s-3 1.3-3 3v5.7c0 1.7 1.3 3 3 3zm29 17.4h-5.7c-1.7 0-3 1.3-3 3s1.3 3 3 3h5.7c1.7 0 3-1.3 3-3s-1.3-3-3-3zM75.3 21.3c.8 0 1.5-.3 2.1-.9l4-4c1.2-1.2 1.2-3.1 0-4.2-1.2-1.2-3.1-1.2-4.2 0l-4 4c-1.2 1.2-1.2 3.1 0 4.2.5.6 1.3.9 2.1.9zm2.1 27.8c-1.2-1.2-3.1-1.2-4.2 0-1.2 1.2-1.2 3.1 0 4.2l4 4c.6.6 1.4.9 2.1.9.8 0 1.5-.3 2.1-.9 1.2-1.2 1.2-3.1 0-4.2l-4-4zM40.1 20.4c.6.6 1.4.9 2.1.9.8 0 1.5-.3 2.1-.9 1.2-1.2 1.2-3.1 0-4.2l-4-4c-1.2-1.2-3.1-1.2-4.2 0-1.2 1.2-1.2 3.1 0 4.2l4 4zM4.2 60.3c2.2 0 4-1.8 4-4 0-4.8 3.5-8 8.7-8 2.2 0 3.9-1.7 4-3.9 0-1.1.6-11.1 10.9-11.1 4.4 0 7.5 1.7 9.4 5.1 1.6 2.9 1.8 6 1.8 6 .1 2.1 1.9 3.8 4 3.8h4.5c5.2 0 8.7 3.2 8.7 8 0 2.2 1.8 4 4 4s4-1.8 4-4c0-9.3-7-16-16.7-16h-1.1c-.4-1.6-1-3.4-2-5.3-3.3-6.2-9.2-9.6-16.5-9.6-7.4 0-13.3 3.4-16.5 9.6-1 2-1.6 4-2 5.6C5.5 42 .2 48.2.2 56.3c0 2.2 1.8 4 4 4zm51.6 9.6c0-1.9-1.6-3.5-3.5-3.5H3.8C1.9 66.4.3 68 .3 69.9s1.6 3.5 3.5 3.5h48.5c1.9 0 3.5-1.6 3.5-3.5zm17.8 11.4H18.4c-1.9 0-3.5 1.6-3.5 3.5s1.6 3.5 3.5 3.5h55.2c1.9 0 3.5-1.6 3.5-3.5 0-2-1.6-3.5-3.5-3.5zm-9-15.4h-.2c-2.2 0-4 1.8-4 4s1.8 4 4 4h.2c2.2 0 4-1.8 4-4s-1.8-4-4-4z"/></svg>