<svg xmlns="http://www.w3.org/2000/svg" viewBox="0 0 182.64 50"><defs><style>.cls-1{fill:#fff}</style></defs><title>Asset 3</title><g id="Layer_2" data-name="Layer 2"><g id="Layer_1-2" data-name="Layer 1"><path class="cls-1" d="M27.92 31.41S27.44 9.19 9.8 2c0 0 17.73 17.77 13.72 37.24 0 0 23.24-1.48 26.58-27.87 0-.04-5.74 17.56-22.18 20.04z"/><path class="cls-1" d="M37.27 11.78a20.06 20.06 0 0 1 2.56 2.9 26.93 26.93 0 0 0 2.72-2 23.59 23.59 0 0 0-15.39-9.42A30.87 30.87 0 0 1 31 7.8a20 20 0 0 1 6.27 3.98zm5.15 22.1a31.58 31.58 0 0 1-12.91 6.91s3.77.63 9.71-1.68c-.32.38-.65.76-1 1.14A20.14 20.14 0 0 1 8.8 12.73a20.3 20.3 0 0 1 3.63-3.07c-.73-1-1.42-1.92-2-2.69a23.7 23.7 0 0 0-4.05 3.46A23.51 23.51 0 0 0 24.3 50 23.53 23.53 0 0 0 47 28.37l-.05.07a32.59 32.59 0 0 1-4.53 5.44z"/><path class="cls-1" d="M30.64 27.19a25.31 25.31 0 0 0 15.94-14.38 26.19 26.19 0 0 1-12.81 7.5S29.81 3.66 15.8 0a34.75 34.75 0 0 1 14.84 27.19zm22.05 8.4a11.82 11.82 0 0 1 .77-4.36 9.68 9.68 0 0 1 2.2-3.42 10.21 10.21 0 0 1 3.48-2.21 12.54 12.54 0 0 1 4.58-.79 13.07 13.07 0 0 1 2.4.21 11.6 11.6 0 0 1 2.07.56 8.81 8.81 0 0 1 1.74.86 10.65 10.65 0 0 1 1.44 1.12l-1.13 1.78a1.14 1.14 0 0 1-.7.53h-.2a1.51 1.51 0 0 1-.74-.23l-1-.55a6.92 6.92 0 0 0-1.06-.48 8.6 8.6 0 0 0-1.31-.34 9.3 9.3 0 0 0-1.67-.14 7.44 7.44 0 0 0-2.86.53 6 6 0 0 0-2.17 1.5 6.7 6.7 0 0 0-1.38 2.35 9 9 0 0 0-.49 3.07 9.28 9.28 0 0 0 .52 3.23 6.93 6.93 0 0 0 1.47 2.4A6.35 6.35 0 0 0 61 42.73a8.32 8.32 0 0 0 3 .51 8 8 0 0 0 2-.24 10.73 10.73 0 0 0 1.77-.64V38.6h-2.6a.78.78 0 0 1-.58-.22.77.77 0 0 1-.2-.54v-2.28h7v8.53A11 11 0 0 1 68 45.82a13.48 13.48 0 0 1-3.88.54 13.2 13.2 0 0 1-4.7-.8 10.29 10.29 0 0 1-3.6-2.23 9.67 9.67 0 0 1-2.29-3.41 11.31 11.31 0 0 1-.84-4.33zm21.16.01a11.67 11.67 0 0 1 .77-4.31 9.85 9.85 0 0 1 5.55-5.67 11.33 11.33 0 0 1 4.36-.81 11.73 11.73 0 0 1 3 .37 10.89 10.89 0 0 1 2.6 1.05 9.67 9.67 0 0 1 2.12 1.65 10.36 10.36 0 0 1 1.59 2.17 9.94 9.94 0 0 1 1 2.59 12.37 12.37 0 0 1 .35 3 11.8 11.8 0 0 1-.77 4.29 10.12 10.12 0 0 1-2.16 3.41 9.5 9.5 0 0 1-3.37 2.25 12.17 12.17 0 0 1-8.73 0 9.68 9.68 0 0 1-3.36-2.29 10 10 0 0 1-2.18-3.42 11.58 11.58 0 0 1-.77-4.28zm4 0a9.63 9.63 0 0 0 .47 3.11A6.42 6.42 0 0 0 79.66 41a5.78 5.78 0 0 0 2.1 1.47 7.8 7.8 0 0 0 5.55 0 5.78 5.78 0 0 0 2.1-1.47 6.54 6.54 0 0 0 1.32-2.33 9.64 9.64 0 0 0 .46-3.11 9.75 9.75 0 0 0-.46-3.12 6.63 6.63 0 0 0-1.32-2.35 5.78 5.78 0 0 0-2.1-1.47 7.69 7.69 0 0 0-5.56 0 5.83 5.83 0 0 0-2.09 1.47 6.51 6.51 0 0 0-1.34 2.35 9.74 9.74 0 0 0-.47 3.16zm18.96-2.48V31.7l2.4-.41.79-4.09a.8.8 0 0 1 .27-.45.83.83 0 0 1 .52-.16h1.87v4.71h4v2.57h-4V42a1.66 1.66 0 0 0 .35 1.11 1.18 1.18 0 0 0 1 .4 1.53 1.53 0 0 0 .56-.09 2.27 2.27 0 0 0 .38-.17l.3-.16a.47.47 0 0 1 .27-.08.38.38 0 0 1 .26.08 1.13 1.13 0 0 1 .22.22l1 1.76a5.16 5.16 0 0 1-1.81 1 6.86 6.86 0 0 1-2.12.33 4 4 0 0 1-3-1.1 4.24 4.24 0 0 1-1-3v-8.43H97.5a.73.73 0 0 1-.49-.19.71.71 0 0 1-.2-.56zm11.32 5.5a9.2 9.2 0 0 1 .52-3.19 6.77 6.77 0 0 1 1.51-2.43 6.86 6.86 0 0 1 2.34-1.54 8.28 8.28 0 0 1 3-.54 8.17 8.17 0 0 1 3 .54 6.78 6.78 0 0 1 2.4 1.54 6.62 6.62 0 0 1 1.5 2.42 10.11 10.11 0 0 1 0 6.4 6.83 6.83 0 0 1-1.5 2.43 6.4 6.4 0 0 1-2.32 1.55 8.38 8.38 0 0 1-3 .53 8.49 8.49 0 0 1-3-.53 6.48 6.48 0 0 1-2.34-1.55 7 7 0 0 1-1.51-2.43 9.24 9.24 0 0 1-.6-3.2zm3.71 0a6.32 6.32 0 0 0 .91 3.69 3.21 3.21 0 0 0 2.8 1.27 3.15 3.15 0 0 0 2.76-1.26 6.33 6.33 0 0 0 .9-3.7 6.41 6.41 0 0 0-.9-3.71 3.13 3.13 0 0 0-2.76-1.27 3.22 3.22 0 0 0-2.8 1.28 6.39 6.39 0 0 0-.91 3.73zm8.96-10.35V25h16.64v3.23h-6.36v17.9h-3.93V28.27zm19.4 17.86V25h6.47a13.4 13.4 0 0 1 3.71.45 7.26 7.26 0 0 1 2.54 1.24 4.88 4.88 0 0 1 1.46 1.92 6.58 6.58 0 0 1 .15 4.47 5.7 5.7 0 0 1-.92 1.72 6.09 6.09 0 0 1-1.49 1.36 7.8 7.8 0 0 1-2 .93 3.9 3.9 0 0 1 1.29 1.21l5.29 7.79h-3.54a1.55 1.55 0 0 1-1.46-.78l-4.45-6.75a1.5 1.5 0 0 0-.54-.55 1.85 1.85 0 0 0-.88-.17h-1.68v8.25zm3.93-11.05h2.44a6.25 6.25 0 0 0 1.94-.28 3.68 3.68 0 0 0 1.35-.77 3.1 3.1 0 0 0 .8-1.16 3.88 3.88 0 0 0 .26-1.47 3 3 0 0 0-1.06-2.47 5.07 5.07 0 0 0-3.23-.86h-2.5zm14.81 11.05V25h3.93v21.13zm8.65 0V25h6.85a11.82 11.82 0 0 1 3.66.5 7.06 7.06 0 0 1 2.55 1.38 5.67 5.67 0 0 1 1.5 2.13 7.84 7.84 0 0 1 0 5.51 5.76 5.76 0 0 1-1.53 2.18 7.12 7.12 0 0 1-2.62 1.47 11.39 11.39 0 0 1-3.59.51h-2.93v7.45zm3.93-10.48h2.92a6 6 0 0 0 1.89-.27 3.5 3.5 0 0 0 1.33-.78 3.19 3.19 0 0 0 .78-1.22 4.59 4.59 0 0 0 .27-1.62 4.07 4.07 0 0 0-.27-1.52 2.94 2.94 0 0 0-.78-1.17 3.37 3.37 0 0 0-1.32-.74 6.28 6.28 0 0 0-1.9-.26h-2.92z"/></g></g></svg>